<svg width="20" height="20" viewBox="0 0 20 20" fill="none" xmlns="http://www.w3.org/2000/svg">
<path fill-rule="evenodd" clip-rule="evenodd" d="M9.99975 20.0002C4.47677 20.0002 -0.000489797 15.5229 -0.000489314 9.99994C-0.000488832 4.47695 4.47677 -0.00030844 9.99976 -0.000307957C15.5227 -0.000307475 20 4.47696 20 9.99994C20 15.5229 15.5227 20.0002 9.99975 20.0002ZM9.99941 18.5716C14.7334 18.5716 18.571 14.7339 18.571 9.99993C18.571 5.26595 14.7334 1.42829 9.99941 1.42829C5.26542 1.42829 1.42777 5.26595 1.42777 9.99993C1.42777 14.7339 5.26542 18.5716 9.99941 18.5716ZM13.0937 6.02244L14.1544 7.0831L11.0608 10.1767L13.9778 13.0937L12.9171 14.1544L10.0001 11.2374L7.08317 14.1543L6.02251 13.0937L8.93947 10.1767L5.84588 7.08312L6.90654 6.02246L10.0001 9.11606L13.0937 6.02244Z" fill="#EB6666"/>
</svg>
