<svg width="20" height="20" viewBox="0 0 20 20" fill="none" xmlns="http://www.w3.org/2000/svg">
<path fill-rule="evenodd" clip-rule="evenodd" d="M9.99975 20.0002C4.47677 20.0002 -0.000489797 15.5229 -0.000489314 9.99994C-0.000488832 4.47696 4.47677 -0.000304626 9.99976 -0.000304143C15.5227 -0.00030366 20 4.47696 20 9.99994C20 15.5229 15.5227 20.0002 9.99975 20.0002ZM9.99941 18.5716C14.7334 18.5716 18.571 14.7339 18.571 9.99994C18.571 5.26595 14.7334 1.4283 9.99941 1.4283C5.26542 1.4283 1.42777 5.26595 1.42777 9.99994C1.42777 14.7339 5.26542 18.5716 9.99941 18.5716ZM14.2319 6.55002L15.2926 7.61068L8.92862 13.9746L4.68597 9.732L5.74663 8.67134L8.92861 11.8533L14.2319 6.55002Z" fill="#2DBD96"/>
</svg>
