<svg width="18" height="18" viewBox="0 0 18 18" fill="none" xmlns="http://www.w3.org/2000/svg">
<path fill-rule="evenodd" clip-rule="evenodd" d="M17.3333 8.99999C17.3333 4.3975 13.6023 0.666451 8.9998 0.666451C4.39731 0.666451 0.66626 4.3975 0.66626 8.99999C0.66626 13.6025 4.39731 17.3335 8.9998 17.3335C13.6023 17.3335 17.3333 13.6025 17.3333 8.99999ZM1.85706 8.99999C1.85706 5.055 5.0551 1.85696 9.00009 1.85696C12.9451 1.85696 16.1431 5.055 16.1431 8.99999C16.1431 12.945 12.9451 16.143 9.00009 16.143C5.0551 16.143 1.85706 12.945 1.85706 8.99999ZM8.375 3.99996H9.625V11.5H8.375V3.99996ZM9.625 12.75H8.375V14H9.625V12.75Z" fill="#FFB547"/>
</svg>
