<svg xmlns="http://www.w3.org/2000/svg" width="21" height="24" viewBox="0 0 21 24">
  <defs>
    <linearGradient id="android-a" x1="0%" x2="100.018%" y1="50.02%" y2="50.02%">
      <stop offset="0%" stop-color="#63BE6B"/>
      <stop offset="50.6%" stop-color="#5BBC6A"/>
      <stop offset="100%" stop-color="#4AB96A"/>
    </linearGradient>
    <linearGradient id="android-b" x1="-.027%" x2="99.942%" y1="50.012%" y2="50.012%">
      <stop offset="0%" stop-color="#3EC6F2"/>
      <stop offset="100%" stop-color="#45AFE3"/>
    </linearGradient>
    <linearGradient id="android-c" x1=".042%" x2="99.989%" y1="50.037%" y2="50.037%">
      <stop offset="0%" stop-color="#FAA51A"/>
      <stop offset="38.7%" stop-color="#FAB716"/>
      <stop offset="74.1%" stop-color="#FAC412"/>
      <stop offset="100%" stop-color="#FAC80F"/>
    </linearGradient>
    <linearGradient id="android-d" x1=".016%" x2="99.999%" y1="49.998%" y2="49.998%">
      <stop offset="0%" stop-color="#EC3B50"/>
      <stop offset="100%" stop-color="#E7515B"/>
    </linearGradient>
  </defs>
  <g fill="none">
    <path fill="url(#android-a)" d="M13.4698529,7.34871795 L0.772058824,0.117948718 C0.6125,0.0256410256 0.411764706,0.0307692308 0.257352941,0.123076923 C0.0977941176,0.215384615 0,0.379487179 0,0.564102564 C0,0.564102564 0.00514705882,1.23076923 0.0102941176,2.32820513 L9.25955882,11.5435897 L13.4698529,7.34871795 Z"/>
    <path fill="url(#android-b)" d="M0.0102941176,2.32820513 C0.0257352941,6.28717949 0.0720588235,15.8974359 0.0926470588,20.6820513 L9.26470588,11.5435897 L0.0102941176,2.32820513 Z"/>
    <path fill="url(#android-c)" d="M20.7375,11.4871795 L13.4698529,7.34871795 L9.25441176,11.5435897 L14.0102941,16.2820513 L20.7426471,12.374359 C20.9022059,12.2820513 21,12.1128205 21,11.9333333 C21,11.7487179 20.8970588,11.5794872 20.7375,11.4871795 Z"/>
    <path fill="url(#android-d)" d="M0.0875,20.6820513 C0.0977941176,22.3897436 0.102941176,23.4820513 0.102941176,23.4820513 C0.102941176,23.6666667 0.200735294,23.8358974 0.360294118,23.9230769 C0.519852941,24.0153846 0.715441176,24.0153846 0.875,23.9230769 L14.0154412,16.2871795 L9.25955882,11.5487179 L0.0875,20.6820513 Z"/>
  </g>
</svg>
