<?xml version="1.0" encoding="UTF-8"?>
<svg width="26px" height="26px" viewBox="0 0 26 26" version="1.1" xmlns="http://www.w3.org/2000/svg" xmlns:xlink="http://www.w3.org/1999/xlink">
    <title>in@1.5x</title>
    <g id="OTC加广告位" stroke="none" stroke-width="1" fill="none" fill-rule="evenodd">
        <g id="首页备份-2-copy" transform="translate(-969.000000, -681.000000)">
            <g id="英国" transform="translate(0.000000, 559.000000)">
                <g id="编组-7" transform="translate(360.000000, 46.000000)">
                    <g id="Group-Copy-24" transform="translate(600.000000, 61.000000)">
                        <g id="Rectangle" transform="translate(0.000000, 6.000000)">
                            <rect x="0" y="0" width="44" height="44"></rect>
                            <rect fill="#FFFFFF" x="11" y="11" width="22" height="22"></rect>
                            <g id="linkedin-(1)" transform="translate(9.000000, 9.000000)" fill="#008ED9" fill-rule="nonzero">
                                <path d="M22.1511875,22.1567549 L18.30075,22.1567549 L18.30075,16.1237539 C18.30075,14.6847714 18.2715,12.8338386 16.2946875,12.8338386 C14.287,12.8338386 13.9806875,14.399575 13.9806875,16.0181256 L13.9806875,22.1575674 L10.13025,22.1575674 L10.13025,9.75111722 L13.82875,9.75111722 L13.82875,11.4419826 L13.8783125,11.4419826 C14.3950625,10.4669521 15.652,9.43748242 17.528875,9.43748242 C21.4296875,9.43748242 22.1511875,12.0050627 22.1511875,15.3469796 L22.1511875,22.1567549 L22.1511875,22.1567549 Z M5.78175,8.05293931 C5.18859357,8.05315521 4.61969298,7.81750179 4.20042045,7.39791134 C3.78114793,6.97832088 3.54591538,6.4092314 3.54656117,5.81605675 C3.54701131,4.58110958 4.54846632,3.58035092 5.7833749,3.58079954 C7.01828348,3.58124847 8.01901091,4.58273473 8.01856236,5.8176819 C8.0181135,7.05262907 7.01665858,8.05338782 5.78175,8.05293931 L5.78175,8.05293931 Z M7.71225,22.1567549 L3.85125,22.1567549 L3.85125,9.7503047 L7.71225,9.7503047 L7.71225,22.1567549 L7.71225,22.1567549 Z M24.0768125,0 L1.9183125,0 C0.858,0 0,0.838526204 0,1.87287103 L0,24.127129 C0,25.1630988 0.858,26 1.9183125,26 L24.0735625,26 C25.1330625,26 26,25.1622863 26,24.127129 L26,1.87287103 C26,0.838526204 25.1330625,0 24.0735625,0 L24.0768125,0 Z" id="Shape"></path>
                            </g>
                        </g>
                    </g>
                </g>
            </g>
        </g>
    </g>
</svg>