<?xml version="1.0" encoding="UTF-8"?>
<svg width="28px" height="28px" viewBox="0 0 28 28" version="1.1" xmlns="http://www.w3.org/2000/svg" xmlns:xlink="http://www.w3.org/1999/xlink">
    <title>Group 7@1.5x</title>
    <g id="OTC加广告位" stroke="none" stroke-width="1" fill="none" fill-rule="evenodd">
        <g id="首页备份-2-copy" transform="translate(-668.000000, -736.000000)" fill-rule="nonzero">
            <g id="英国" transform="translate(0.000000, 559.000000)">
                <g id="编组-7" transform="translate(360.000000, 46.000000)">
                    <g id="Group-Copy-21" transform="translate(300.000000, 117.000000)">
                        <g id="编组" transform="translate(4.000000, 10.000000)">
                            <g id="Group-7" transform="translate(4.000000, 4.000000)">
                                <path d="M14,0 C6.27057245,0 3.90798505e-14,6.26744186 3.90798505e-14,14 C3.90798505e-14,21.7325581 6.26744186,28 14,28 C21.7325581,28 28,21.7325581 28,14 C28,6.26744186 21.7294275,0 14,0 Z" id="Path" fill="#333333"></path>
                                <path d="M21.9986583,7.92978533 L20.7245081,9.15071556 C20.6118068,9.2352415 20.5585868,9.37298748 20.5805009,9.50760286 L20.5805009,18.4955277 C20.5585868,18.6332737 20.6118068,18.7710197 20.7245081,18.852415 L21.9736136,20.0733453 L21.9736136,20.3457066 L15.6999106,20.3457066 L15.6999106,20.0858676 L16.9897138,18.8336315 C17.118068,18.7052773 17.118068,18.6677102 17.118068,18.4767442 L17.118068,11.2043828 L13.5241503,20.3144007 L13.0389088,20.3144007 L8.85957066,11.2043828 L8.85957066,17.3121646 C8.82200358,17.568873 8.9127907,17.828712 9.09436494,18.0134168 L10.7754919,20.0483005 L10.7754919,20.3206619 L5.99821109,20.3206619 L5.99821109,20.0483005 L7.6793381,18.0134168 C7.86091234,17.828712 7.9391771,17.5657424 7.89847943,17.3121646 L7.89847943,10.2495528 C7.92039356,10.0523256 7.84525939,9.86135957 7.69499106,9.72674419 L6.20169946,7.92665474 L6.20169946,7.65429338 L10.8412343,7.65429338 L14.4226297,15.5120751 L17.5751342,7.66368515 L21.9955277,7.66368515 L21.9955277,7.92978533 L21.9986583,7.92978533 Z" id="Path" fill="#FFFFFF"></path>
                                <path d="M10.3188429,14.5131825 L10.3188429,14.5208625 L10.9743301,14.5208625 L10.3188429,14.5131825 Z M16.8716087,14.5131825 L16.8716087,14.5208625 L17.5265694,14.5208625 L16.8716087,14.5131825 Z" id="Shape" fill="#FF4500"></path>
                            </g>
                        </g>
                    </g>
                </g>
            </g>
        </g>
    </g>
</svg>