<?xml version="1.0" encoding="UTF-8"?>
<svg width="28px" height="19px" viewBox="0 0 28 19" version="1.1" xmlns="http://www.w3.org/2000/svg" xmlns:xlink="http://www.w3.org/1999/xlink">
    <title>Group 2@1.5x</title>
    <g id="OTC加广告位" stroke="none" stroke-width="1" fill="none" fill-rule="evenodd">
        <g id="首页备份-2-copy" transform="translate(-668.000000, -796.000000)">
            <g id="英国" transform="translate(0.000000, 559.000000)">
                <g id="编组-7" transform="translate(360.000000, 46.000000)">
                    <g id="Group-Copy-23" transform="translate(300.000000, 173.000000)">
                        <g id="编组" transform="translate(0.000000, 6.000000)">
                            <rect id="Rectangle" x="4" y="4" width="36" height="36"></rect>
                            <g id="Group" transform="translate(8.000000, 12.000000)" fill-rule="nonzero">
                                <path d="M26.4709938,2.92221279 C26.1524539,1.78802096 25.2716214,0.899064791 24.1416816,0.571418007 L24.1180166,0.565492345 C22.0109863,-3.55271368e-15 13.5296191,-3.55271368e-15 13.5296191,-3.55271368e-15 C13.5296191,-3.55271368e-15 5.07022643,-0.0109899179 2.94122154,0.565492345 C1.80883116,0.884539001 0.921286935,1.76677278 0.594160557,2.89851014 L0.588244307,2.92221279 C0.213830186,4.85313209 -3.62376795e-13,7.07271578 -3.62376795e-13,9.34309086 L-3.62376795e-13,9.48107413 L-3.62376795e-13,9.47430195 L-3.62376795e-13,9.58096386 C-3.62376795e-13,11.8513389 0.213830186,14.0709226 0.62289663,16.221938 L0.588244307,16.0018419 C0.906784216,17.1360338 1.78761673,18.0249899 2.91755653,18.3526367 L2.94122154,18.3585624 C5.04656143,18.9248864 13.5296191,18.9248864 13.5296191,18.9248864 C13.5296191,18.9248864 21.9881665,18.9248864 24.1180166,18.3585624 C25.250407,18.0395157 26.1379512,17.1572819 26.4650776,16.0255446 L26.4709938,16.0018419 C26.8301947,14.1115557 27.0355731,11.9359913 27.0355731,9.71302147 L27.0347279,9.4616041 L27.0347279,9.47430195 L27.0355731,9.21187977 C27.0355731,6.98890999 26.8301947,4.8133455 26.4371867,2.70465634 L26.4709938,2.92305931 L26.4709938,2.92221279 Z" id="Path" fill="#FF0000"></path>
                                <polygon id="Path" fill="#FFFFFF" points="10.822512 13.5274548 10.822512 5.40845127 17.8814437 9.47430195"></polygon>
                            </g>
                        </g>
                    </g>
                </g>
            </g>
        </g>
    </g>
</svg>