<?xml version="1.0" encoding="UTF-8"?>
<svg width="26px" height="26px" viewBox="0 0 26 26" version="1.1" xmlns="http://www.w3.org/2000/svg" xmlns:xlink="http://www.w3.org/1999/xlink">
    <title>Group 8@1.5x</title>
    <g id="OTC加广告位" stroke="none" stroke-width="1" fill="none" fill-rule="evenodd">
        <g id="首页备份-2-copy" transform="translate(-969.000000, -737.000000)">
            <g id="英国" transform="translate(0.000000, 559.000000)">
                <g id="编组-7" transform="translate(360.000000, 46.000000)">
                    <g id="Group-Copy-28" transform="translate(600.000000, 117.000000)">
                        <g id="Group-8" transform="translate(0.000000, 6.000000)">
                            <rect id="Rectangle" x="0" y="0" width="44" height="44"></rect>
                            <path d="M30.125,9 C31.4678819,9 32.6161024,9.47677951 33.5696615,10.4303385 C34.5232205,11.3838976 35,12.532118 35,13.875 L35,30.125 C35,31.4678819 34.5232205,32.6161024 33.5696615,33.5696615 C32.6161024,34.5232205 31.467882,35 30.125,35 L26.9427083,35 L26.9427083,24.9283854 L30.3111979,24.9283854 L30.8190104,21.0013021 L26.9427083,21.0013021 L26.9427083,18.4960938 C26.9427083,17.8641493 27.0753038,17.390191 27.3404948,17.0742188 C27.6056857,16.7582465 28.1219618,16.6002604 28.8893229,16.6002604 L30.9544271,16.5833333 L30.9544271,13.0794271 C30.2434896,12.9778646 29.2391493,12.9270833 27.9414062,12.9270833 C26.406684,12.9270833 25.1794705,13.3784722 24.2597656,14.28125 C23.3400608,15.1840278 22.8802083,16.4592014 22.8802083,18.1067708 L22.8802083,21.0013021 L19.4947917,21.0013021 L19.4947917,24.9283854 L22.8802083,24.9283854 L22.8802083,35 L13.875,35 C12.5321181,35 11.3838976,34.5232205 10.4303385,33.5696615 C9.47677949,32.6161024 9,31.467882 9,30.125 L9,13.875 C9,12.5321181 9.47677951,11.3838976 10.4303385,10.4303385 C11.3838976,9.47677949 12.532118,9 13.875,9 L30.125,9 Z" id="Path" fill="#1977F2" fill-rule="nonzero"></path>
                        </g>
                    </g>
                </g>
            </g>
        </g>
    </g>
</svg>