<?xml version="1.0" encoding="UTF-8"?>
<svg width="28px" height="28px" viewBox="0 0 28 28" version="1.1" xmlns="http://www.w3.org/2000/svg" xmlns:xlink="http://www.w3.org/1999/xlink">
    <title>Group 5@1.5x</title>
    <g id="OTC加广告位" stroke="none" stroke-width="1" fill="none" fill-rule="evenodd">
        <g id="首页备份-2-copy" transform="translate(-368.000000, -792.000000)" fill-rule="nonzero">
            <g id="英国" transform="translate(0.000000, 559.000000)">
                <g id="编组-7" transform="translate(360.000000, 46.000000)">
                    <g id="Group-Copy-18" transform="translate(0.000000, 173.000000)">
                        <g id="Rectangle" transform="translate(0.000000, 6.000000)">
                            <g id="编组" transform="translate(4.000000, 4.000000)">
                                <g id="twi" transform="translate(4.000000, 4.000000)">
                                    <path d="M14,0 C6.2804,0 0,6.2804 0,14 C0,21.7186667 6.2804,28 14,28 C21.7186667,28 28,21.7186667 28,14 C28,6.2804 21.7205333,0 14,0 Z" id="Path" fill="#03A9F4"></path>
                                    <path d="M20.1876461,10.8810945 C20.1931931,11.0166182 20.1968911,11.1521418 20.1968911,11.2885751 C20.1968911,15.4388736 16.9870439,20.2222222 11.1146506,20.2222222 C9.31188504,20.2222222 7.63392633,19.703776 6.22222222,18.8124123 C7.91058759,19.0131577 9.61080392,18.5452356 10.9482415,17.511749 C9.58238811,17.4867572 8.38379071,16.6101958 7.9658201,15.3306365 C8.44411633,15.4205913 8.93692778,15.4025533 9.40710806,15.2778824 C7.91741601,14.9821416 6.84615862,13.6941976 6.84625645,12.1990394 C6.84625645,12.1853961 6.84625645,12.1717528 6.84810545,12.159019 C7.2779957,12.3936841 7.76982712,12.5355747 8.29309139,12.5519467 C7.40494,11.9692902 6.87194834,10.9881294 6.87306682,9.9378862 C6.87306682,9.36122847 7.03023101,8.82186247 7.30480607,8.35798952 C8.9254312,10.3204072 11.3167245,11.5135929 13.8835136,11.6405728 C13.5502599,10.2547981 14.206682,8.82189319 15.4827021,8.149701 C16.7587223,7.4775088 18.3347771,7.73437155 19.3223186,8.77547517 C20.037783,8.63746777 20.7238593,8.37965522 21.350661,8.01326827 C21.1117192,8.74076033 20.6123517,9.35811435 19.9454284,9.7505179 C20.5779421,9.67728555 21.1956465,9.51079058 21.7777778,9.25662965 C21.3509844,9.88725272 20.8123628,10.4371959 20.1876461,10.880185 L20.1876461,10.8810945 Z" id="Path" fill="#FFFFFF"></path>
                                </g>
                            </g>
                        </g>
                    </g>
                </g>
            </g>
        </g>
    </g>
</svg>