<svg xmlns="http://www.w3.org/2000/svg" width="20" height="24" viewBox="0 0 20 24">
  <path fill="#0F1D42" fill-rule="evenodd" d="M13.2559381,3.89625316 C14.0195666,2.88585234 14.598449,1.45774118 14.3890638,0 C13.1409821,0.0889040722 11.6821493,0.907385737 10.8309355,1.9742316 C10.0549899,2.94088739 9.41726363,4.37887355 9.66633169,5.77452469 C11.0307353,5.81827122 12.438934,4.98003404 13.2559381,3.89625316 Z M19.9999805,17.6086143 C19.4539469,18.8560903 19.191191,19.4135058 18.487777,20.5184567 C17.5065536,22.0608729 16.122989,23.9814795 14.4068736,23.9955895 C12.8837189,24.0125235 12.4909583,22.9724886 10.4231359,22.9851887 C8.35531341,22.9964777 7.92423577,24.0153445 6.39834453,23.9998245 C4.6835998,23.9843015 3.37256689,22.2513781 2.39134343,20.7089668 C-0.353893011,16.3992383 -0.642648837,11.3401592 1.05020323,8.64905702 C2.25449477,6.73832547 4.15398567,5.62067456 5.93854008,5.62067456 C7.754553,5.62067456 8.89726412,6.6480104 10.4012578,6.6480104 C11.8600906,6.6480104 12.7482556,5.61785456 14.8489219,5.61785456 C16.4391302,5.61785456 18.1237725,6.51112529 19.322586,8.05213154 C15.392219,10.2733183 16.0285794,16.060538 20,17.6085893 L19.9999805,17.6086143 Z"/>
</svg>
