<?xml version="1.0" encoding="UTF-8"?>
<svg width="28px" height="28px" viewBox="0 0 28 28" version="1.1" xmlns="http://www.w3.org/2000/svg" xmlns:xlink="http://www.w3.org/1999/xlink">
    <title>Reddit@1.5x</title>
    <g id="OTC加广告位" stroke="none" stroke-width="1" fill="none" fill-rule="evenodd">
        <g id="首页备份-2-copy" transform="translate(-668.000000, -680.000000)">
            <g id="英国" transform="translate(0.000000, 559.000000)">
                <g id="编组-7" transform="translate(360.000000, 46.000000)">
                    <g id="Group-Copy-20" transform="translate(300.000000, 61.000000)">
                        <g id="Rectangle" transform="translate(0.000000, 6.000000)">
                            <rect x="0" y="0" width="44" height="44"></rect>
                            <g id="Group-5" transform="translate(8.000000, 8.000000)" fill-rule="nonzero">
                                <circle id="Oval" fill="#FF4500" cx="14" cy="14" r="14"></circle>
                                <g id="reddit" transform="translate(3.888889, 5.444444)">
                                    <path d="M6.42995398,9.06873806 L6.42995398,9.07641806 L7.08544116,9.07641806 L6.42995398,9.06873806 Z M12.9827198,9.06873806 L12.9827198,9.07641806 L13.6376805,9.07641806 L12.9827198,9.06873806 Z" id="Shape" fill="#FF4500"></path>
                                    <path d="M20.2222222,7.53863894 C20.2208216,6.15153077 19.0948931,5.02740447 17.705561,5.02601333 C17.1504614,5.02601333 16.6236728,5.2067124 16.1929398,5.5347973 C14.7885073,4.56063751 12.9487918,3.98017961 10.9917875,3.83380326 L12.0478924,1.36105259 L15.119646,2.07728717 C15.2177237,3.02620966 16.0129621,3.76970052 16.9881782,3.76970052 C18.030288,3.76858775 18.8748069,2.92542065 18.8759214,1.88497894 C18.8748069,0.844537225 18.030288,0.00137012867 16.9881782,0.000257355829 C16.351727,0.000853903055 15.7586151,0.322281006 15.4113514,0.854792342 L11.8214037,0.016913974 C11.5232953,-0.0534312902 11.2177853,0.100890982 11.0979541,0.382350082 L9.63791061,3.79948054 C7.52468973,3.87266871 5.51156879,4.46675475 3.9913642,5.50198881 C3.56381882,5.18919454 3.04669293,5.02228705 2.51665958,5.02601333 C1.12732754,5.02740447 0.00139899617,6.15153077 0,7.53863894 C-0.00190778944,8.44013717 0.484688608,9.27216724 1.27198259,9.71358948 C1.26187149,9.82412885 1.2583326,9.93719196 1.2583326,10.0517693 C1.2583326,13.5153364 5.20975231,16.3333333 10.067127,16.3333333 C14.922985,16.3333333 18.8759214,13.5153364 18.8759214,10.0512646 C18.8759214,9.95334383 18.871877,9.8564326 18.8658103,9.76002611 C19.7003514,9.33337803 20.2244666,8.47522836 20.2222222,7.53914369 L20.2222222,7.53863894 Z M17.1114236,0.777777778 C17.5389045,0.777777778 17.8888889,1.12588724 17.8888889,1.55524307 C17.8888889,1.9845989 17.5389045,2.33333333 17.1114236,2.33333333 C16.6819816,2.33264512 16.3340215,1.98468507 16.3333333,1.55524307 C16.3333333,1.12588724 16.6833177,0.777777778 17.1114236,0.777777778 L17.1114236,0.777777778 Z M5.44444444,9.72245654 C5.44521927,9.07831607 5.96730998,8.55633023 6.61157984,8.55555556 C7.25548357,8.55684626 7.77700422,9.0786813 7.77777778,9.72245654 C7.77700295,10.3663382 7.2551221,10.8881142 6.61111111,10.8888889 C5.96691734,10.8881137 5.44496099,10.3660526 5.44444444,9.7219879 L5.44444444,9.72245654 Z M12.9647107,13.7221076 C11.2616629,15.1296678 8.95860389,15.1296678 7.25555611,13.7221076 C7.07671111,13.5743561 6.98054998,13.3289856 7.00329568,13.0784247 C7.02604138,12.8278638 7.16423829,12.6101787 7.36582899,12.5073693 C7.56741968,12.4045599 7.80177773,12.4322453 7.98062271,12.5799968 C9.25076693,13.631828 10.9699965,13.631828 12.2401407,12.5799968 C12.4189388,12.4310915 12.6539127,12.4027012 12.8560877,12.505576 C13.0582627,12.6084508 13.196732,12.8268642 13.2190631,13.0781121 C13.2413943,13.3293601 13.1441734,13.575034 12.9642141,13.7221076 L12.9647107,13.7221076 Z M13.6111111,10.8888889 C12.961499,10.8709874 12.4444444,10.3539328 12.4444444,9.72222222 C12.4444444,9.09051167 12.961499,8.57345707 13.6111111,8.55555556 C14.2607232,8.57345707 14.7777778,9.09051167 14.7777778,9.72222222 C14.7777778,10.3539328 14.2607232,10.8709874 13.6111111,10.8888889 Z" id="Shape" fill="#FFFFFF"></path>
                                </g>
                            </g>
                        </g>
                    </g>
                </g>
            </g>
        </g>
    </g>
</svg>