<svg width="40" height="40" viewBox="0 0 40 40" fill="none" xmlns="http://www.w3.org/2000/svg">
<rect x="3" y="3" width="34" height="34" rx="7" fill="#2DBD96"/>
<path fill-rule="evenodd" clip-rule="evenodd" d="M16.0065 19.5021L22.1697 25.7228L26.06 21.7969C26.7556 21.1648 27.8198 21.1929 28.4817 21.8609C29.1436 22.5289 29.1715 23.6029 28.5451 24.3049L23.4113 29.4867C22.7218 30.1711 21.6158 30.1711 20.9262 29.4867L13.5194 22.0101V26.454C13.5194 27.4348 12.7315 28.2298 11.7597 28.2298C10.7878 28.2298 10 27.4348 10 26.454V12.5445C10 11.5637 10.7878 10.7686 11.7597 10.7686C12.7315 10.7686 13.5194 11.5637 13.5194 12.5445V16.9884L20.9252 9.51369C21.6146 8.82877 22.721 8.82877 23.4104 9.51369L28.548 14.6946C29.1744 15.3966 29.1465 16.4706 28.4846 17.1385C27.8227 17.8065 26.7585 17.8346 26.0628 17.2025L22.1726 13.2766L16.0065 19.5021ZM22.1726 17.7244C21.46 17.724 20.8173 18.1569 20.5444 18.8211C20.2714 19.4854 20.4219 20.2502 20.9256 20.7588C21.4294 21.2675 22.1872 21.4198 22.8455 21.1446C23.5039 20.8695 23.9332 20.2212 23.9332 19.5021C23.9335 19.0306 23.7481 18.5784 23.4179 18.2448C23.0878 17.9112 22.6398 17.7237 22.1726 17.7234V17.7244Z" fill="white"/>
</svg>
