<svg width="36" height="36" viewBox="0 0 36 36" fill="none" xmlns="http://www.w3.org/2000/svg">
<rect x="18.818" y="18.8182" width="15.5455" height="15.5455" rx="3" fill="#347AE6"/>
<path d="M30.3345 24.6733C30.3398 24.755 30.3398 24.8402 30.3398 24.9236C30.3398 27.476 28.396 30.416 24.8439 30.416C23.7486 30.416 22.7332 30.0978 21.8778 29.5502C22.0343 29.5675 22.1838 29.5745 22.3438 29.5745C23.2479 29.5745 24.0789 29.2685 24.7414 28.7504C23.8929 28.733 23.1801 28.1766 22.9367 27.4116C23.234 27.4551 23.5017 27.4551 23.8077 27.3769C22.9245 27.1978 22.2621 26.4206 22.2621 25.4817V25.4574C22.5176 25.6017 22.8184 25.6904 23.1331 25.7025C22.5959 25.3444 22.2725 24.7411 22.2725 24.096C22.2725 23.7362 22.3664 23.4075 22.535 23.1224C23.4861 24.2943 24.9152 25.0593 26.5165 25.141C26.2435 23.8283 27.2241 22.766 28.4029 22.766C28.9593 22.766 29.46 22.999 29.813 23.3745C30.2494 23.2928 30.6666 23.1294 31.0387 22.9103C30.8944 23.3571 30.5919 23.7344 30.1902 23.9726C30.5797 23.9309 30.9552 23.8231 31.303 23.6718C31.0404 24.0578 30.7118 24.4003 30.3345 24.6733Z" fill="white"/>
<rect x="1.63712" y="18.8181" width="15.5455" height="15.5455" rx="3" fill="#FF6336"/>
<path d="M13.6607 27.1096C13.7405 27.3439 13.7821 27.5885 13.7821 27.8401C13.7821 29.5646 11.825 30.963 9.40995 30.963C6.99485 30.963 5.03779 29.5646 5.03779 27.8401C5.03779 27.5885 5.07943 27.3439 5.15924 27.1096C4.72028 26.9153 4.41319 26.4781 4.41319 25.9663C4.41319 25.2758 4.97186 24.7171 5.66238 24.7171C6.13256 24.7171 6.54028 24.9756 6.75369 25.359C7.38175 25.0155 8.14514 24.79 8.9762 24.7327L9.98943 22.4582C10.064 22.2881 10.2531 22.2014 10.4319 22.2534L12.0211 22.7132C12.179 22.42 12.4895 22.2205 12.8469 22.2205C13.364 22.2205 13.7838 22.6403 13.7838 23.1574C13.7838 23.6744 13.364 24.0942 12.8469 24.0942C12.4392 24.0942 12.0922 23.8323 11.9638 23.4679L10.5377 23.0567L9.79164 24.731C10.6435 24.783 11.426 25.0103 12.0679 25.3608C12.2813 24.9773 12.6891 24.7188 13.1592 24.7188C13.8498 24.7188 14.4084 25.2775 14.4084 25.968C14.4067 26.4764 14.0996 26.9153 13.6607 27.1096Z" fill="white"/>
<path d="M10.6881 28.5497C10.4295 28.7527 9.91946 28.9713 9.40938 28.9713C8.89929 28.9713 8.38747 28.7527 8.13069 28.5497C7.96934 28.423 7.73685 28.4508 7.6102 28.6121C7.48354 28.7735 7.5113 29.006 7.67266 29.1326C8.11855 29.4866 8.8004 29.7138 9.40938 29.7138C10.0184 29.7138 10.7002 29.4866 11.1478 29.1326C11.3092 29.006 11.3369 28.7717 11.2103 28.6121C11.0836 28.4508 10.8494 28.423 10.6881 28.5497ZM5.66181 25.3417C5.31655 25.3417 5.03722 25.621 5.03722 25.9663C5.03722 26.2283 5.2003 26.4538 5.42932 26.5458C5.62885 26.2317 5.8995 25.9472 6.22568 25.6991C6.12679 25.4874 5.90991 25.3417 5.66181 25.3417Z" fill="#FF6336"/>
<path d="M6.91162 27.2154C6.91162 27.3811 6.97743 27.5399 7.09456 27.6571C7.21169 27.7742 7.37056 27.84 7.53622 27.84C7.70187 27.84 7.86074 27.7742 7.97787 27.6571C8.095 27.5399 8.16081 27.3811 8.16081 27.2154C8.16081 27.0498 8.095 26.8909 7.97787 26.7738C7.86074 26.6566 7.70187 26.5908 7.53622 26.5908C7.37056 26.5908 7.21169 26.6566 7.09456 26.7738C6.97743 26.8909 6.91162 27.0498 6.91162 27.2154Z" fill="#FF6336"/>
<path d="M10.6593 27.2154C10.6593 27.3811 10.7251 27.5399 10.8422 27.6571C10.9594 27.7742 11.1182 27.84 11.2839 27.84C11.4495 27.84 11.6084 27.7742 11.7255 27.6571C11.8427 27.5399 11.9085 27.3811 11.9085 27.2154C11.9085 27.0498 11.8427 26.8909 11.7255 26.7738C11.6084 26.6566 11.4495 26.5908 11.2839 26.5908C11.1182 26.5908 10.9594 26.6566 10.8422 26.7738C10.7251 26.8909 10.6593 27.0498 10.6593 27.2154Z" fill="#FF6336"/>
<path d="M13.1573 25.3417C12.9092 25.3417 12.6924 25.4874 12.5935 25.6991C12.9196 25.9472 13.1903 26.2317 13.3898 26.5458C13.6188 26.4538 13.7819 26.2283 13.7819 25.9663C13.7819 25.621 13.5026 25.3417 13.1573 25.3417Z" fill="#FF6336"/>
<rect x="18.818" y="1.63635" width="15.5455" height="15.5455" rx="3" fill="#49A9F0"/>
<path d="M29.133 12.9743L30.4071 6.96276C30.5198 6.43281 30.2163 6.22541 29.869 6.35543L22.3754 9.24406C21.8634 9.44332 21.8723 9.72985 22.2888 9.85987L24.2058 10.4584L28.6575 7.6563C28.8656 7.51745 29.0567 7.59589 28.9006 7.73474L25.2993 10.9873L25.1605 12.9658C25.2356 12.9661 25.3097 12.949 25.3771 12.9159C25.4446 12.8828 25.5034 12.8346 25.5491 12.775L26.4857 11.873L28.4289 13.3042C28.7847 13.5035 29.0362 13.3996 29.1316 12.9746L29.133 12.9743Z" fill="white"/>
<rect x="1.63712" y="1.63635" width="15.5455" height="15.5455" rx="3" fill="#0059E3"/>
<path d="M14.2016 7.33249H13.0906C12.2196 7.33249 12.0509 7.74628 12.0509 8.35481V9.6953H14.1303L13.8591 11.7938H12.0509V17.1819H9.88284V11.7956H8.06944V9.6953H9.88284V8.14791C9.88284 6.3519 10.9799 5.37305 12.5829 5.37305C13.3514 5.37305 14.0104 5.43042 14.2034 5.4565V7.33249H14.2016Z" fill="white"/>
</svg>
