<svg width="144" height="108" viewBox="0 0 144 108" fill="none" xmlns="http://www.w3.org/2000/svg">
<path d="M127.019 57.9961C126.925 58.3827 126.638 58.7422 126.149 59.0231C124.805 59.7994 122.458 59.7027 120.908 58.8056L120.778 58.7301L119.477 59.4822L119.607 59.5577C121.159 60.4518 121.325 61.808 119.984 62.5843C118.64 63.3606 116.293 63.2639 114.743 62.3668L74.9087 39.4923C72.9454 38.3566 71.9607 36.9007 72.003 35.5264V74.3915V74.5335H72.009C72.0241 75.8716 72.9997 77.2822 74.9117 78.3847L114.74 101.259C116.293 102.153 118.64 102.253 119.981 101.477C120.606 101.117 120.899 100.631 120.884 100.126V97.6859L120.905 97.698C122.458 98.5951 124.805 98.6917 126.146 97.9154C126.632 97.6345 126.919 97.2781 127.013 96.8945L127.052 58.0082L127.019 57.9961Z" fill="white"/>
<mask id="mask0_587_10901" style="mask-type:alpha" maskUnits="userSpaceOnUse" x="72" y="35" width="56" height="67">
<path d="M127.019 57.9961C126.925 58.3827 126.638 58.7422 126.149 59.0231C124.805 59.7994 122.458 59.7027 120.908 58.8056L120.778 58.7301L119.477 59.4822L119.607 59.5577C121.159 60.4518 121.325 61.808 119.984 62.5843C118.64 63.3606 116.293 63.2639 114.743 62.3668L74.9087 39.4923C72.9454 38.3566 71.9607 36.9007 72.003 35.5264V74.3915V74.5335H72.009C72.0241 75.8716 72.9997 77.2822 74.9117 78.3847L114.74 101.259C116.293 102.153 118.64 102.253 119.981 101.477C120.606 101.117 120.899 100.631 120.884 100.126V97.6859L120.905 97.698C122.458 98.5951 124.805 98.6917 126.146 97.9154C126.632 97.6345 126.919 97.2781 127.013 96.8945L127.052 58.0082L127.019 57.9961Z" fill="white"/>
</mask>
<g mask="url(#mask0_587_10901)">
<path d="M126.484 97.8891V59.0088" stroke="#EBE9E9" stroke-width="0.7" stroke-miterlimit="10"/>
<path d="M119.764 102.37V63.4893" stroke="#EBE9E9" stroke-width="0.7" stroke-miterlimit="10"/>
<path d="M123.124 97.89V59.0098" stroke="black" stroke-width="0.7" stroke-miterlimit="10"/>
</g>
<path d="M127.019 57.9961C126.925 58.3827 126.638 58.7422 126.149 59.0231C124.805 59.7994 122.458 59.7027 120.908 58.8056L120.778 58.7301L119.477 59.4822L119.607 59.5577C121.159 60.4518 121.325 61.808 119.984 62.5843C118.64 63.3606 116.293 63.2639 114.743 62.3668L74.9087 39.4923C72.9454 38.3566 71.9607 36.9007 72.003 35.5264V74.3915V74.5335H72.009C72.0241 75.8716 72.9997 77.2822 74.9117 78.3847L114.74 101.259C116.293 102.153 118.64 102.253 119.981 101.477C120.606 101.117 120.899 100.631 120.884 100.126V97.6859L120.905 97.698C122.458 98.5951 124.805 98.6917 126.146 97.9154C126.632 97.6345 126.919 97.2781 127.013 96.8945L127.052 58.0082L127.019 57.9961Z" stroke="black" stroke-width="0.7" stroke-miterlimit="10"/>
<path d="M120.906 58.8066L120.887 61.2503C120.887 61.2503 120.893 60.3169 119.607 59.5588L120.906 58.8066Z" fill="white"/>
<path d="M120.906 58.8066L120.887 61.2503C120.887 61.2503 120.893 60.3169 119.607 59.5588L120.906 58.8066Z" stroke="black" stroke-width="0.7" stroke-miterlimit="10"/>
<g opacity="0.5">
<path d="M82.6078 37.7773L112.602 42.7189L112.028 54.6742L82.6078 37.7773Z" fill="black"/>
<path d="M82.6078 37.7773L112.602 42.7189L112.028 54.6742L82.6078 37.7773Z" stroke="black" stroke-width="0.7" stroke-miterlimit="10"/>
</g>
<path d="M118.991 59.7627L78.3826 36.4412L80.7295 35.085L121.338 58.4095L118.991 59.7627Z" fill="white"/>
<path d="M118.991 59.7627L78.3826 36.4412L80.7295 35.085L121.338 58.4095L118.991 59.7627Z" stroke="black" stroke-width="0.7" stroke-miterlimit="10"/>
<path d="M81.4908 36.1702L120.906 58.8061C122.458 59.7032 124.802 59.7998 126.146 59.0236C127.49 58.2473 127.321 56.8941 125.769 55.997L85.943 33.1225C82.4241 31.0927 77.1019 30.8722 74.0572 32.6302C71.0095 34.3881 71.3931 37.46 74.909 39.4928L114.738 62.3673C116.29 63.2614 118.637 63.361 119.978 62.5848C121.323 61.8085 121.153 60.4553 119.601 59.5582L80.1496 36.8982C79.6935 36.6354 79.6845 36.2246 80.1678 36.0313C80.5484 35.8833 81.1162 35.9558 81.4908 36.1702Z" fill="white"/>
<path d="M81.4908 36.1702L120.906 58.8061C122.458 59.7032 124.802 59.7998 126.146 59.0236C127.49 58.2473 127.321 56.8941 125.769 55.997L85.943 33.1225C82.4241 31.0927 77.1019 30.8722 74.0572 32.6302C71.0095 34.3881 71.3931 37.46 74.909 39.4928L114.738 62.3673C116.29 63.2614 118.637 63.361 119.978 62.5848C121.323 61.8085 121.153 60.4553 119.601 59.5582L80.1496 36.8982C79.6935 36.6354 79.6845 36.2246 80.1678 36.0313C80.5484 35.8833 81.1162 35.9558 81.4908 36.1702Z" fill="#EBE9E9" stroke="black" stroke-width="0.7" stroke-miterlimit="10"/>
<path d="M120.884 100.13V61.25" stroke="black" stroke-width="0.7" stroke-miterlimit="10"/>
<path d="M106.719 80.3645C106.719 81.9325 107.556 83.3812 108.915 84.1635L111.371 85.577C115.572 88.0025 121.93 88.2653 125.567 86.166C127.162 85.2447 127.969 84.0245 128.02 82.7377V73.2381C128.02 73.1868 127.95 73.1807 127.938 73.2291C127.694 74.2893 126.908 75.277 125.567 76.0502C121.927 78.1525 115.572 77.8867 111.371 75.4612C109.302 74.2701 106.719 75.7636 106.719 78.1512V80.3645Z" fill="white" stroke="black" stroke-width="0.7"/>
<mask id="mask1_587_10901" style="mask-type:alpha" maskUnits="userSpaceOnUse" x="106" y="72" width="23" height="16">
<path d="M106.719 80.3645C106.719 81.9325 107.556 83.3812 108.915 84.1635L111.371 85.577C115.572 88.0025 121.93 88.2653 125.567 86.166C127.162 85.2447 127.969 84.0245 128.02 82.7377V73.2381C128.02 73.1868 127.95 73.1807 127.938 73.2291C127.694 74.2893 126.908 75.277 125.567 76.0502C121.927 78.1525 115.572 77.8867 111.371 75.4612C109.302 74.2701 106.719 75.7636 106.719 78.1512V80.3645Z" fill="white" stroke="black" stroke-width="0.7"/>
</mask>
<g mask="url(#mask1_587_10901)">
<rect x="117.582" y="69.5215" width="10.0796" height="21.2791" fill="#EBE9E9"/>
<rect x="114.558" y="70.6416" width="1.11995" height="21.2791" fill="#EBE9E9"/>
<path d="M106.719 80.3645C106.719 81.9325 107.556 83.3812 108.915 84.1635L111.371 85.577C115.572 88.0025 121.93 88.2653 125.567 86.166C127.162 85.2447 127.969 84.0245 128.02 82.7377V73.2381C128.02 73.1868 127.95 73.1807 127.938 73.2291C127.694 74.2893 126.908 75.277 125.567 76.0502C121.927 78.1525 115.572 77.8867 111.371 75.4612V75.4612C109.302 74.2701 106.719 75.7636 106.719 78.1512V80.3645Z" stroke="black" stroke-width="0.7"/>
</g>
<path d="M105.044 75.8303C105.044 77.6456 103.764 78.3766 102.181 77.4614C100.601 76.5492 99.3174 74.3381 99.3174 72.5228C99.3174 70.7075 100.598 69.9765 102.181 70.8917C103.764 71.8069 105.044 74.0149 105.044 75.8303Z" fill="white"/>
<path d="M104.238 76.4006C104.238 78.2159 102.957 78.9469 101.374 78.0317C99.7945 77.1195 98.5108 74.9084 98.5108 73.0931C98.5108 71.2778 99.7915 70.5468 101.374 71.462C102.957 72.3742 104.238 74.5853 104.238 76.4006Z" fill="white"/>
<path d="M82.6078 37.7773L112.668 41.3386L112.028 54.6742L82.6078 37.7773Z" fill="white"/>
<path d="M82.6078 37.7773L112.668 41.3386L112.028 54.6742L82.6078 37.7773Z" fill="#D9D9D9" stroke="black" stroke-width="0.7" stroke-miterlimit="10"/>
<path d="M117.553 57.8448V44.4518L80.7656 36.4987C80.6568 36.4746 80.5994 36.6226 80.6961 36.68L117.553 57.8448Z" fill="white"/>
<path d="M117.553 57.8448V44.4518L80.7656 36.4987C80.6568 36.4746 80.5994 36.6226 80.6961 36.68L117.553 57.8448Z" fill="#66DE8C" stroke="black" stroke-width="0.7" stroke-miterlimit="10"/>
<path d="M85.2402 66.5429C85.0982 66.6365 85.0184 66.8118 85.0184 67.0304C85.0184 67.249 85.0982 67.4929 85.2402 67.7084L86.7497 69.9999C86.8917 70.2154 87.0843 70.385 87.2851 70.4713C87.4859 70.5575 87.6785 70.5535 87.8205 70.4599L89.3299 69.4655C89.4719 69.372 89.5517 69.1966 89.5517 68.978C89.5517 68.7595 89.4719 68.5156 89.3299 68.3L87.8205 66.0087C87.6785 65.7932 87.4859 65.6236 87.2851 65.5373C87.0843 65.451 86.8917 65.4551 86.7497 65.5486L85.2402 66.5429Z" fill="#66DE8C"/>
<path fill-rule="evenodd" clip-rule="evenodd" d="M92.9955 61.7559C93.298 62.3989 93.5566 63.0521 93.7682 63.7074C89.6681 56.9026 82.6917 52.724 77.32 54.1636C76.4716 54.3909 76.2247 55.5132 76.7685 56.6701C77.3123 57.8271 78.4409 58.5807 79.2892 58.3533C79.7606 58.2267 80.2586 58.1591 80.7772 58.1516C76.1434 60.6233 75.0581 67.7502 78.5013 75.0759C79.0451 76.2329 80.1736 76.9864 81.0219 76.7591C81.8702 76.5316 82.1171 75.4094 81.5734 74.2525C81.271 73.6095 81.0123 72.9563 80.8007 72.301C84.8937 79.0941 91.8532 83.2701 97.221 81.8522C97.7426 81.7261 98.0899 81.2472 98.0888 80.5307C98.0873 79.4333 97.2691 78.1942 96.2615 77.7629C95.9049 77.6098 95.5562 77.5742 95.2588 77.6606C94.7936 77.7837 94.3026 77.8494 93.7917 77.8568C98.4255 75.3852 99.5109 68.2584 96.0677 60.9325C95.5239 59.7756 94.3954 59.022 93.547 59.2495C92.6987 59.4769 92.4518 60.599 92.9955 61.7559ZM84.3253 61.721C81.7844 62.4063 81.046 65.7708 82.6763 69.2394C84.3076 72.7102 87.6933 74.971 90.2384 74.2888C92.7834 73.6067 93.5241 70.24 91.8926 66.7691L91.8921 66.7678C90.2604 63.2976 86.8753 61.0375 84.3306 61.7197L84.3253 61.721Z" fill="#66DE8C"/>
</svg>
