<svg width="144" height="108" viewBox="0 0 144 108" fill="none" xmlns="http://www.w3.org/2000/svg">
<path d="M84.5924 38.2265L78.4169 41.0634L78.9406 42.2088C71.4341 49.8245 69.7756 63.6922 75.6674 76.5232C81.5592 89.3542 93.1682 97.1228 103.839 96.3809L104.363 97.5263L110.538 94.6894C122.627 89.1358 126.62 71.9841 119.452 56.3927C112.284 40.8013 96.6705 32.6621 84.5814 38.2265H84.5924Z" fill="#EBE9E9" stroke="black" stroke-width="0.7" stroke-miterlimit="10"/>
<path d="M84.2871 88.5576C90.0807 93.9475 97.1399 96.8393 103.839 96.381L104.363 97.5264L110.538 94.6895C118.678 90.9472 123.118 81.9567 122.987 71.7334L84.2762 88.5688L84.2871 88.5576Z" fill="black" stroke="black" stroke-width="0.7" stroke-miterlimit="10"/>
<path d="M122.54 67.5282L115.741 70.0278L114.65 66.2867L121.934 64.103L122.54 67.5282Z" fill="black"/>
<path d="M104.003 97.734C116.093 92.1785 120.085 75.0336 112.919 59.4397C105.753 43.8458 90.1434 35.7082 78.0537 41.2637C65.9641 46.8192 61.9726 63.9641 69.1384 79.5579C76.3042 95.1518 91.9137 103.29 104.003 97.734Z" fill="#66DE8C"/>
<path d="M78.417 41.0629C69.012 45.3836 64.5168 56.7089 66.3389 68.8634L114.542 86.7131C117.87 78.9993 117.695 68.8306 113.277 59.2291C106.108 43.6378 90.4951 35.4985 78.4061 41.0629H78.417Z" fill="white"/>
<path d="M104.221 62.4482L95.9942 67.129C94.1176 68.1982 92.8411 66.9872 93.1466 64.445L94.4995 53.294L92.6883 52.4976L91.3353 63.6485C91.0298 66.1907 89.6006 66.2011 88.1604 63.6698L81.8539 52.5849L80.4029 53.4139L86.7092 64.4993C88.1494 67.0197 87.4075 68.2414 85.0617 67.2158L74.7838 62.688L74.5438 64.6522L84.8217 69.1801C87.1675 70.2166 87.5493 71.9296 85.6727 72.9988L77.446 77.6795L78.559 79.6326L86.7856 74.9519C88.6622 73.8826 89.9388 75.0937 89.6333 77.6358L88.2804 88.7756L90.0915 89.5721L91.4445 78.4323C91.75 75.8901 93.1793 75.8792 94.6195 78.4105L100.926 89.4959L102.377 88.6664L96.0706 77.581C94.6304 75.0606 95.3723 73.8389 97.7181 74.8645L107.996 79.3923L108.236 77.4286L97.9581 72.9008C95.6123 71.8643 95.2305 70.1513 97.1071 69.082L105.334 64.4013L104.221 62.4482Z" fill="black"/>
<path d="M104.003 97.734C116.093 92.1785 120.085 75.0336 112.919 59.4397C105.753 43.8458 90.1434 35.7082 78.0537 41.2637C65.9641 46.8192 61.9726 63.9641 69.1384 79.5579C76.3042 95.1518 91.9137 103.29 104.003 97.734Z" stroke="black" stroke-width="0.7" stroke-miterlimit="10"/>
</svg>
