<svg width="144" height="108" viewBox="0 0 144 108" fill="none" xmlns="http://www.w3.org/2000/svg">
<path d="M99.2934 94.0239C111.955 94.0239 122.219 92.7734 122.219 91.2307C122.219 89.6881 111.955 88.4375 99.2934 88.4375C86.6321 88.4375 76.368 89.6881 76.368 91.2307C76.368 92.7734 86.6321 94.0239 99.2934 94.0239Z" fill="white" stroke="black" stroke-width="0.7" stroke-miterlimit="10"/>
<path d="M99.2935 94.0254C86.6327 94.0254 76.368 92.7746 76.368 91.2305V98.2065C76.368 99.7489 86.6327 101 99.2935 101C111.954 101 122.219 99.7489 122.219 98.2065V91.2305C122.219 92.7729 111.954 94.0237 99.2935 94.0237V94.0254Z" fill="#EBE9E9" stroke="black" stroke-width="0.7" stroke-miterlimit="10"/>
<mask id="mask0_587_10803" style="mask-type:alpha" maskUnits="userSpaceOnUse" x="76" y="91" width="47" height="11">
<path d="M99.2935 94.0254C86.6327 94.0254 76.368 92.7746 76.368 91.2305V98.2065C76.368 99.7489 86.6327 101 99.2935 101C111.954 101 122.219 99.7489 122.219 98.2065V91.2305C122.219 92.7729 111.954 94.0237 99.2935 94.0237V94.0254Z" fill="#EBE9E9" stroke="black" stroke-width="0.7" stroke-miterlimit="10"/>
</mask>
<g mask="url(#mask0_587_10803)">
<rect x="109.84" y="88.4375" width="23.0119" height="14.6439" fill="black"/>
<rect x="107.052" y="88.7875" width="22.3119" height="13.9439" stroke="black" stroke-width="0.7"/>
<path d="M99.2935 94.0254C86.6327 94.0254 76.368 92.7746 76.368 91.2305V98.2065C76.368 99.7489 86.6327 101 99.2935 101C111.954 101 122.219 99.7489 122.219 98.2065V91.2305C122.219 92.7729 111.954 94.0237 99.2935 94.0237V94.0254Z" stroke="black" stroke-width="0.7" stroke-miterlimit="10"/>
</g>
<path d="M93.1039 76.9322L80.5519 49.7363L68 76.9322" stroke="black" stroke-width="0.7"/>
<mask id="mask1_587_10803" style="mask-type:alpha" maskUnits="userSpaceOnUse" x="71" y="64" width="18" height="19">
<path d="M86.3833 80.3652L86.3984 80.3514L86.3998 80.3501L86.3998 80.3501L86.4024 80.3476C86.427 80.3248 86.4515 80.3017 86.4757 80.2783L86.4783 80.2758L87.0037 79.7786L86.9772 79.78L87.3093 79.219C87.9888 78.0712 88.2952 76.5635 88.0758 74.805C87.7831 72.4577 86.6112 70.1367 84.9412 68.288C83.2706 66.4388 81.1233 65.086 78.9055 64.6449C77.2991 64.3254 75.8889 64.5295 74.7747 65.1196L74.2201 65.4133L74.1663 65.4634L74.1777 65.4763L73.9042 65.7077C72.5096 66.8879 71.7535 68.8855 72.0666 71.3957C72.3594 73.743 73.5312 76.064 75.2013 77.9127C76.8719 79.7619 79.0192 81.1147 81.237 81.5558C83.3752 81.9811 85.1674 81.4801 86.3833 80.3652Z" fill="#D9D9D9" stroke="black" stroke-width="0.7"/>
</mask>
<g mask="url(#mask1_587_10803)">
<path d="M86.3833 80.3652L86.3984 80.3514L86.3998 80.3501L86.3998 80.3501L86.4024 80.3476C86.427 80.3248 86.4515 80.3017 86.4757 80.2783L86.4783 80.2758L87.0037 79.7786L86.9772 79.78L87.3093 79.219C87.9888 78.0712 88.2952 76.5635 88.0758 74.805C87.7831 72.4577 86.6112 70.1367 84.9412 68.288C83.2706 66.4388 81.1233 65.086 78.9055 64.6449C77.2991 64.3254 75.8889 64.5295 74.7747 65.1196L74.2201 65.4133L74.1663 65.4634L74.1777 65.4763L73.9042 65.7077C72.5096 66.8879 71.7535 68.8855 72.0666 71.3957C72.3594 73.743 73.5312 76.064 75.2013 77.9127C76.8719 79.7619 79.0192 81.1147 81.237 81.5558C83.3752 81.9811 85.1674 81.4801 86.3833 80.3652Z" fill="#EBE9E9" stroke="black" stroke-width="0.7"/>
<path d="M79.1735 77.8642L76.469 80.4534L84.8121 83.3944L88.9537 78.4725L79.1735 77.8642Z" fill="black"/>
<path d="M77.687 77.4039L75.7415 79.3837L74.7726 78.5177L76.7973 76.3564L77.687 77.4039Z" fill="black"/>
<path d="M86.3833 80.3652L86.3984 80.3514L86.3998 80.3501L86.3998 80.3501L86.4024 80.3476C86.427 80.3248 86.4515 80.3017 86.4757 80.2783L86.4783 80.2758L87.0037 79.7786L86.9772 79.78L87.3093 79.219C87.9888 78.0712 88.2952 76.5635 88.0758 74.805C87.7831 72.4577 86.6112 70.1367 84.9412 68.288C83.2706 66.4388 81.1233 65.086 78.9055 64.6449C77.2991 64.3254 75.8889 64.5295 74.7747 65.1196L74.2201 65.4133L74.1663 65.4634L74.1777 65.4763L73.9042 65.7077C72.5096 66.8879 71.7535 68.8855 72.0666 71.3957C72.3594 73.743 73.5312 76.064 75.2013 77.9127C76.8719 79.7619 79.0192 81.1147 81.237 81.5558C83.3752 81.9811 85.1674 81.4801 86.3833 80.3652Z" fill="black" stroke="black" stroke-width="0.7"/>
</g>
<path d="M73.5538 70.1089C74.1377 74.7898 78.2066 79.2761 82.6167 80.1533C87.0268 81.0305 90.155 77.9759 89.5711 73.2949C88.9872 68.6139 84.9184 64.1277 80.5083 63.2505C76.0982 62.3732 72.97 65.4279 73.5538 70.1089Z" fill="white" stroke="black" stroke-width="0.7"/>
<mask id="mask2_587_10803" style="mask-type:alpha" maskUnits="userSpaceOnUse" x="75" y="65" width="13" height="14">
<path d="M75.7587 70.5487C76.1825 73.9465 79.1343 77.1962 82.3264 77.8312C85.5186 78.4662 87.7892 76.2553 87.3654 72.8574C86.9415 69.4595 83.9898 66.2098 80.7976 65.5749C77.6055 64.9399 75.3348 67.1508 75.7587 70.5487Z" fill="#66DD8C" stroke="black" stroke-width="0.7"/>
</mask>
<g mask="url(#mask2_587_10803)">
<path d="M75.7587 70.5487C76.1825 73.9465 79.1343 77.1962 82.3264 77.8312C85.5186 78.4662 87.7892 76.2553 87.3654 72.8574C86.9415 69.4595 83.9898 66.2098 80.7976 65.5749C77.6055 64.9399 75.3348 67.1508 75.7587 70.5487Z" fill="#66DD8C" stroke="black" stroke-width="0.7"/>
<path d="M75.3467 72.054C75.7522 75.3049 78.5761 78.413 81.6287 79.0202C84.6814 79.6274 86.8538 77.5131 86.4483 74.2622C86.0428 71.0113 83.219 67.9032 80.1663 67.296C77.1137 66.6888 74.9412 68.8031 75.3467 72.054Z" stroke="white" stroke-width="0.7"/>
<path d="M75.7587 70.5487C76.1825 73.9465 79.1343 77.1962 82.3264 77.8312C85.5186 78.4662 87.7892 76.2553 87.3654 72.8574C86.9415 69.4595 83.9898 66.2098 80.7976 65.5749C77.6055 64.9399 75.3348 67.1508 75.7587 70.5487Z" stroke="black" stroke-width="0.7"/>
</g>
<path d="M68 76.9326H93.1039C93.1039 80.3987 90.294 83.2086 86.8279 83.2086H74.276C70.8098 83.2086 68 80.3987 68 76.9326Z" fill="#EBE9E9" stroke="black" stroke-width="0.7"/>
<mask id="mask3_587_10803" style="mask-type:alpha" maskUnits="userSpaceOnUse" x="67" y="76" width="27" height="8">
<path d="M68 76.9326H93.1039C93.1039 80.3987 90.294 83.2086 86.8279 83.2086H74.276C70.8098 83.2086 68 80.3987 68 76.9326Z" fill="#D9D9D9" stroke="black" stroke-width="0.7"/>
</mask>
<g mask="url(#mask3_587_10803)">
<ellipse cx="70.7198" cy="77.9791" rx="15.0623" ry="6.27597" fill="white"/>
<path d="M68 76.9326H93.1039V76.9326C93.1039 80.3987 90.294 83.2086 86.8279 83.2086H74.276C70.8098 83.2086 68 80.3987 68 76.9326V76.9326Z" stroke="black" stroke-width="0.7"/>
</g>
<path d="M129.714 71.7017L117.162 44.5059L104.61 71.7017" stroke="black" stroke-width="0.7"/>
<mask id="mask4_587_10803" style="mask-type:alpha" maskUnits="userSpaceOnUse" x="109" y="58" width="18" height="19">
<path d="M111.839 75.1347L111.824 75.121L111.823 75.1196L111.823 75.1196L111.82 75.1171C111.795 75.0943 111.771 75.0712 111.747 75.0478L111.744 75.0453L111.219 74.5482L111.245 74.5495L110.913 73.9885C110.233 72.8407 109.927 71.333 110.146 69.5745C110.439 67.2273 111.611 64.9063 113.281 63.0576C114.952 61.2083 117.099 59.8556 119.317 59.4144C120.923 59.0949 122.333 59.2991 123.448 59.8891L124.002 60.1828L124.056 60.2329L124.045 60.2458L124.318 60.4772C125.713 61.6574 126.469 63.655 126.156 66.1653C125.863 68.5125 124.691 70.8335 123.021 72.6822C121.35 74.5314 119.203 75.8842 116.985 76.3253C114.847 76.7507 113.055 76.2497 111.839 75.1347Z" fill="#D9D9D9" stroke="black" stroke-width="0.7"/>
</mask>
<g mask="url(#mask4_587_10803)">
<path d="M111.839 75.1347L111.824 75.121L111.823 75.1196L111.823 75.1196L111.82 75.1171C111.795 75.0943 111.771 75.0712 111.747 75.0478L111.744 75.0453L111.219 74.5482L111.245 74.5495L110.913 73.9885C110.233 72.8407 109.927 71.333 110.146 69.5745C110.439 67.2273 111.611 64.9063 113.281 63.0576C114.952 61.2083 117.099 59.8556 119.317 59.4144C120.923 59.0949 122.333 59.2991 123.448 59.8891L124.002 60.1828L124.056 60.2329L124.045 60.2458L124.318 60.4772C125.713 61.6574 126.469 63.655 126.156 66.1653C125.863 68.5125 124.691 70.8335 123.021 72.6822C121.35 74.5314 119.203 75.8842 116.985 76.3253C114.847 76.7507 113.055 76.2497 111.839 75.1347Z" fill="#EBE9E9" stroke="black" stroke-width="0.7"/>
<path d="M119.048 72.6338L121.753 75.2229L113.41 78.1639L109.268 73.2421L119.048 72.6338Z" fill="black"/>
<path d="M120.535 72.1735L122.481 74.1532L123.449 73.2872L121.425 71.126L120.535 72.1735Z" fill="black"/>
<path d="M111.839 75.1347L111.824 75.121L111.823 75.1196L111.823 75.1196L111.82 75.1171C111.795 75.0943 111.771 75.0712 111.747 75.0478L111.744 75.0453L111.219 74.5482L111.245 74.5495L110.913 73.9885C110.233 72.8407 109.927 71.333 110.146 69.5745C110.439 67.2273 111.611 64.9063 113.281 63.0576C114.952 61.2083 117.099 59.8556 119.317 59.4144C120.923 59.0949 122.333 59.2991 123.448 59.8891L124.002 60.1828L124.056 60.2329L124.045 60.2458L124.318 60.4772C125.713 61.6574 126.469 63.655 126.156 66.1653C125.863 68.5125 124.691 70.8335 123.021 72.6822C121.35 74.5314 119.203 75.8842 116.985 76.3253C114.847 76.7507 113.055 76.2497 111.839 75.1347Z" fill="black" stroke="black" stroke-width="0.7"/>
</g>
<path d="M124.669 64.8784C124.085 69.5594 120.016 74.0456 115.606 74.9229C111.196 75.8001 108.068 72.7454 108.651 68.0644C109.235 63.3835 113.304 58.8972 117.714 58.02C122.124 57.1428 125.253 60.1974 124.669 64.8784Z" fill="white" stroke="black" stroke-width="0.7"/>
<mask id="mask5_587_10803" style="mask-type:alpha" maskUnits="userSpaceOnUse" x="110" y="59" width="13" height="15">
<path d="M122.464 65.3182C122.04 68.7161 119.088 71.9658 115.896 72.6007C112.704 73.2357 110.433 71.0248 110.857 67.6269C111.281 64.2291 114.233 60.9794 117.425 60.3444C120.617 59.7094 122.888 61.9203 122.464 65.3182Z" fill="#66DD8C" stroke="black" stroke-width="0.7"/>
</mask>
<g mask="url(#mask5_587_10803)">
<path d="M122.464 65.3182C122.04 68.7161 119.088 71.9658 115.896 72.6007C112.704 73.2357 110.433 71.0248 110.857 67.6269C111.281 64.2291 114.233 60.9794 117.425 60.3444C120.617 59.7094 122.888 61.9203 122.464 65.3182Z" fill="#66DD8C" stroke="black" stroke-width="0.7"/>
<path d="M122.876 66.8235C122.47 70.0744 119.646 73.1825 116.594 73.7897C113.541 74.3969 111.369 72.2827 111.774 69.0318C112.18 65.7808 115.004 62.6727 118.056 62.0655C121.109 61.4583 123.281 63.5726 122.876 66.8235Z" stroke="white" stroke-width="0.7"/>
<path d="M122.464 65.3182C122.04 68.7161 119.088 71.9658 115.896 72.6007C112.704 73.2357 110.433 71.0248 110.857 67.6269C111.281 64.2291 114.233 60.9794 117.425 60.3444C120.617 59.7094 122.888 61.9203 122.464 65.3182Z" stroke="black" stroke-width="0.7"/>
</g>
<path d="M104.61 71.7021H129.714C129.714 75.1683 126.904 77.9781 123.438 77.9781H110.886C107.42 77.9781 104.61 75.1683 104.61 71.7021Z" fill="#EBE9E9" stroke="black" stroke-width="0.7"/>
<mask id="mask6_587_10803" style="mask-type:alpha" maskUnits="userSpaceOnUse" x="104" y="71" width="27" height="8">
<path d="M104.61 71.7021H129.714C129.714 75.1683 126.904 77.9781 123.438 77.9781H110.886C107.42 77.9781 104.61 75.1683 104.61 71.7021Z" fill="#D9D9D9" stroke="black" stroke-width="0.7"/>
</mask>
<g mask="url(#mask6_587_10803)">
<ellipse cx="107.329" cy="72.7486" rx="15.0623" ry="6.27597" fill="white"/>
<path d="M104.61 71.7021H129.714V71.7021C129.714 75.1683 126.904 77.9781 123.438 77.9781H110.886C107.42 77.9781 104.61 75.1683 104.61 71.7021V71.7021Z" stroke="black" stroke-width="0.7"/>
</g>
<rect x="75.6851" y="46.412" width="46.3698" height="3.48398" rx="1.65" transform="rotate(-9 75.6851 46.412)" fill="white" stroke="black" stroke-width="0.7"/>
<mask id="mask7_587_10803" style="mask-type:alpha" maskUnits="userSpaceOnUse" x="75" y="39" width="48" height="11">
<rect x="75.6851" y="46.412" width="46.3698" height="3.48398" rx="1.65" transform="rotate(-9 75.6851 46.412)" fill="white" stroke="black" stroke-width="0.7"/>
</mask>
<g mask="url(#mask7_587_10803)">
<rect x="75.6121" y="48.1875" width="47.0698" height="4.18398" transform="rotate(-9 75.6121 48.1875)" fill="#D9D9D9"/>
<rect x="75.6851" y="46.412" width="46.3698" height="3.48398" rx="1.65" transform="rotate(-9 75.6851 46.412)" stroke="black" stroke-width="0.7"/>
</g>
<path d="M96.5919 35.615C96.5919 34.3641 97.606 33.35 98.8569 33.35C100.108 33.35 101.122 34.3641 101.122 35.615V91.2257H96.5919V35.615Z" fill="white" stroke="black" stroke-width="0.7"/>
<mask id="mask8_587_10803" style="mask-type:alpha" maskUnits="userSpaceOnUse" x="96" y="33" width="6" height="59">
<path d="M96.5919 35.615C96.5919 34.3641 97.606 33.35 98.8569 33.35C100.108 33.35 101.122 34.3641 101.122 35.615V91.2257H96.5919V35.615Z" fill="white" stroke="black" stroke-width="0.7"/>
</mask>
<g mask="url(#mask8_587_10803)">
<path d="M98.8571 33H104.087V91.5757H98.8571V33Z" fill="#EBE9E9"/>
<path d="M96.5919 35.615C96.5919 34.3641 97.606 33.35 98.8569 33.35C100.108 33.35 101.122 34.3641 101.122 35.615V91.2257H96.5919V35.615Z" stroke="black" stroke-width="0.7"/>
</g>
<circle cx="98.8568" cy="43.9833" r="4.35698" fill="#EBE9E9" stroke="black" stroke-width="0.7"/>
<mask id="mask9_587_10803" style="mask-type:alpha" maskUnits="userSpaceOnUse" x="94" y="39" width="10" height="10">
<circle cx="98.8568" cy="43.9833" r="4.35698" fill="white" stroke="black" stroke-width="0.7"/>
</mask>
<g mask="url(#mask9_587_10803)">
<circle cx="96.7648" cy="41.8915" r="4.70698" fill="white"/>
<circle cx="98.8568" cy="43.9833" r="4.35698" stroke="black" stroke-width="0.7"/>
</g>
</svg>
