<svg width="144" height="108" viewBox="0 0 144 108" fill="none" xmlns="http://www.w3.org/2000/svg">
<path d="M129.153 71.7794C132.367 69.9292 132.367 66.9012 129.153 65.051L103.031 50.0166C99.817 48.1664 94.5529 48.1664 91.3389 50.0166L41.3909 77.0985C38.1769 78.9487 38.1769 81.9767 41.3909 83.8269L67.513 98.8613C70.727 100.711 75.9911 100.711 79.2051 98.8613L129.153 71.7794Z" fill="white" stroke="#121212" stroke-width="0.7" stroke-linecap="round" stroke-linejoin="round"/>
<path d="M121.155 48.7012V68.4834C121.155 69.7488 119.378 70.7761 117.183 70.7761C114.987 70.7761 113.21 69.7488 113.21 68.4834V48.7012H121.155Z" fill="#C2C8CF"/>
<path d="M121.155 48.7012V68.4834C121.155 69.7488 119.378 70.7761 117.183 70.7761C114.987 70.7761 113.21 69.7488 113.21 68.4834V48.7012H121.155Z" fill="#C2C8CF" stroke="#121212" stroke-width="0.7" stroke-linecap="round" stroke-linejoin="round"/>
<path d="M117.183 50.9933C119.376 50.9933 121.155 49.9668 121.155 48.7006C121.155 47.4345 119.376 46.4082 117.183 46.4082C114.989 46.4082 113.21 47.4345 113.21 48.7006C113.21 49.9668 114.989 50.9933 117.183 50.9933Z" fill="#C2C8CF" stroke="#121212" stroke-width="0.7" stroke-linecap="round" stroke-linejoin="round"/>
<path d="M114.008 35.3076V55.0899C114.008 56.3552 112.231 57.3825 110.036 57.3825C107.84 57.3825 106.064 56.3552 106.064 55.0899V35.3076H114.008Z" fill="#C2C8CF"/>
<path d="M114.008 35.3076V55.0899C114.008 56.3552 112.231 57.3825 110.036 57.3825C107.84 57.3825 106.064 56.3552 106.064 55.0899V35.3076H114.008Z" fill="#C2C8CF" stroke="#121212" stroke-width="0.7" stroke-linecap="round" stroke-linejoin="round"/>
<path d="M110.04 37.6007C112.234 37.6007 114.013 36.5742 114.013 35.3081C114.013 34.0419 112.234 33.0156 110.04 33.0156C107.846 33.0156 106.068 34.0419 106.068 35.3081C106.068 36.5742 107.846 37.6007 110.04 37.6007Z" fill="#C2C8CF" stroke="#121212" stroke-width="0.7" stroke-linecap="round" stroke-linejoin="round"/>
<path d="M106.777 60.6006V75.8987C106.777 77.514 104.984 78.8256 102.768 78.8256C100.552 78.8256 98.7584 77.514 98.7584 75.8987V60.6006H106.777Z" fill="#00C27C"/>
<path d="M106.866 60.375V76.7319C106.866 77.9973 105.089 79.0246 102.894 79.0246C100.698 79.0246 98.9213 77.9973 98.9213 76.7319V60.375H106.866Z" fill="#00C27C" stroke="#121212" stroke-width="0.7" stroke-linecap="round" stroke-linejoin="round"/>
<path d="M102.894 62.6671C105.087 62.6671 106.866 61.6408 106.866 60.3747C106.866 59.1085 105.087 58.082 102.894 58.082C100.7 58.082 98.9213 59.1085 98.9213 60.3747C98.9213 61.6408 100.7 62.6671 102.894 62.6671Z" fill="#00C27C" stroke="#121212" stroke-width="0.7" stroke-linecap="round" stroke-linejoin="round"/>
<path d="M99.7195 75.7012V80.8595C99.7195 82.1249 97.9427 83.152 95.7472 83.152C93.5516 83.152 91.7748 82.1249 91.7748 80.8595V75.7012H99.7195Z" fill="#C2C8CF"/>
<path d="M99.7195 75.7012V80.8595C99.7195 82.1249 97.9427 83.152 95.7472 83.152C93.5516 83.152 91.7748 82.1249 91.7748 80.8595V75.7012H99.7195Z" fill="#C2C8CF" stroke="#121212" stroke-width="0.7" stroke-linecap="round" stroke-linejoin="round"/>
<path d="M95.7471 77.9935C97.941 77.9935 99.7194 76.967 99.7194 75.7009C99.7194 74.4347 97.941 73.4082 95.7471 73.4082C93.5533 73.4082 91.7748 74.4347 91.7748 75.7009C91.7748 76.967 93.5533 77.9935 95.7471 77.9935Z" fill="#C2C8CF" stroke="#121212" stroke-width="0.7" stroke-linecap="round" stroke-linejoin="round"/>
<path d="M61.3583 88.151C68.8237 88.151 74.8756 84.6574 74.8756 80.3476C74.8756 76.0378 68.8237 72.5439 61.3583 72.5439C53.8929 72.5439 47.8409 76.0378 47.8409 80.3476C47.8409 84.6574 53.8929 88.151 61.3583 88.151Z" fill="#121212"/>
<path d="M60.6263 79.6906C62.1385 79.1086 63.5978 78.7163 64.9777 79.5143C66.2783 80.2682 65.9962 81.2734 64.6779 82.1111L65.5024 82.5916L64.916 82.9311L64.0828 82.4461C62.3942 83.3058 60.7189 83.3764 59.3698 82.6357L60.6968 81.8685C61.4639 82.2124 62.1738 82.2081 63.007 81.8158L61.1641 80.7443L61.1068 80.7663C59.6431 81.2954 58.2191 81.7452 56.8347 80.9428C55.5826 80.2154 55.8912 79.2631 57.1918 78.4342L56.6187 78.0991L57.205 77.7596L57.787 78.0991C59.211 77.4113 60.7585 77.3496 62.0679 78.0065L60.7718 78.7561C60.1589 78.4783 59.48 78.5047 58.8848 78.7339L60.5646 79.7082L60.6307 79.6818L60.6263 79.6906ZM63.5934 81.4806C64.1004 81.1191 64.3076 80.7092 63.7742 80.4005C63.2804 80.114 62.7028 80.2197 61.896 80.4974L63.5934 81.4851M59.8459 79.9861L58.2676 79.0691C57.7077 79.4571 57.6195 79.8361 58.0471 80.083C58.4748 80.3299 58.9994 80.2727 59.8459 79.9861Z" fill="white"/>
</svg>
