<svg width="144" height="108" viewBox="0 0 144 108" fill="none" xmlns="http://www.w3.org/2000/svg">
<path d="M84.5924 38.2275L78.4169 41.0644L78.9406 42.2098C71.4341 49.8255 69.7756 63.6932 75.6674 76.5241C81.5592 89.3551 93.1682 97.1238 103.839 96.3818L104.363 97.5272L110.538 94.6904C122.627 89.1368 126.62 71.9851 119.452 56.3937C112.284 40.8023 96.6705 32.663 84.5814 38.2275H84.5924Z" fill="#EBE9E9" stroke="black" stroke-width="0.7" stroke-miterlimit="10"/>
<path d="M84.2871 88.5586C90.0807 93.9485 97.1399 96.8402 103.839 96.382L104.363 97.5274L110.538 94.6905C118.678 90.9482 123.118 81.9577 122.987 71.7344L84.2762 88.5698L84.2871 88.5586Z" fill="black" stroke="black" stroke-width="0.7" stroke-miterlimit="10"/>
<path d="M122.54 67.5287L115.741 70.0282L114.65 66.2872L121.934 64.1035L122.54 67.5287Z" fill="black"/>
<path d="M104.003 97.7345C116.093 92.179 120.085 75.0341 112.919 59.4402C105.753 43.8463 90.1434 35.7086 78.0537 41.2641C65.9641 46.8196 61.9726 63.9646 69.1384 79.5584C76.3042 95.1523 91.9137 103.29 104.003 97.7345Z" fill="#66DE8C"/>
<mask id="mask0_587_10880" style="mask-type:alpha" maskUnits="userSpaceOnUse" x="65" y="39" width="52" height="61">
<path d="M104.003 97.7345C116.093 92.179 120.085 75.0341 112.919 59.4402C105.753 43.8463 90.1434 35.7086 78.0537 41.2641C65.9641 46.8196 61.9726 63.9646 69.1384 79.5584C76.3042 95.1523 91.9137 103.29 104.003 97.7345Z" fill="#66DE8C"/>
</mask>
<g mask="url(#mask0_587_10880)">
<path d="M78.4171 41.0634C69.012 45.3841 64.5168 56.7093 66.3389 68.8639L114.542 86.7136C117.87 78.9998 117.696 68.831 113.277 59.2296C106.108 43.6383 90.4952 35.499 78.4061 41.0634H78.4171Z" fill="white"/>
</g>
<path d="M104.003 97.7345C116.093 92.179 120.085 75.0341 112.919 59.4402C105.753 43.8463 90.1434 35.7086 78.0537 41.2641C65.9641 46.8196 61.9726 63.9646 69.1384 79.5584C76.3042 95.1523 91.9137 103.29 104.003 97.7345Z" stroke="black" stroke-width="0.7" stroke-miterlimit="10"/>
<path d="M82.1144 54.3891C85.6489 55.5429 87.5582 58.5109 87.5582 62.868C87.5582 65.4412 86.998 66.6709 85.4517 67.4072C87.3373 69.5023 88 71.3013 88 74.2844C88 79.0894 86.0039 80.8808 82.075 79.598C78.146 78.3151 76.2367 75.5901 76 71.3241L79.2742 71.8782C79.5108 74.0871 80.3866 75.4079 81.9487 75.9165C83.6213 76.463 84.5523 75.4306 84.5523 73.0547C84.5523 70.6788 83.3057 68.4851 81.4517 67.8779L79.7791 67.3313V63.8244L81.2387 64.3026C83.0454 64.8947 84.1105 64.0066 84.1105 61.9115C84.1105 59.8165 83.3136 58.4198 81.9408 57.9643C80.6391 57.5393 79.8185 58.2376 79.574 59.9076L76.4813 58.5944C76.7574 54.6244 78.6114 53.2429 82.1144 54.3891Z" fill="black"/>
<path d="M103.669 61.8619L98.5126 72.5148L104 87L100.29 85.7381L96.2576 75.031L92.548 83.0903L89 81.8748L94.5259 70.5174L89.431 57L93.1329 58.2619L96.7809 67.9548L100.129 60.6542L103.669 61.8619Z" fill="black"/>
</svg>
