<svg width="144" height="108" viewBox="0 0 144 108" fill="none" xmlns="http://www.w3.org/2000/svg">
<path d="M119.146 45.3864L118.901 44.7535L112.047 45.6026L111.958 45.6135L111.886 45.6652C111.85 45.6909 111.797 45.7344 111.755 45.8005C111.708 45.8748 111.67 45.9898 111.709 46.1198C111.743 46.2357 111.821 46.3032 111.867 46.3355C111.915 46.3696 111.965 46.3907 112.002 46.4041C112.139 46.4534 112.341 46.4785 112.542 46.4963C112.836 46.5223 113.228 46.5392 113.648 46.5572C113.83 46.565 114.017 46.5731 114.204 46.5822C114.833 46.6129 115.462 46.6559 115.935 46.74C115.939 46.7407 115.943 46.7414 115.947 46.7421C115.963 46.755 115.98 46.7661 115.996 46.7756C116.076 46.8236 116.162 46.8446 116.227 46.8556C116.292 46.8667 116.364 46.8721 116.439 46.8737C116.446 46.8767 116.453 46.8798 116.46 46.8828C116.49 46.8969 116.51 46.9083 116.522 46.9165C116.542 47.0117 116.589 47.1024 116.667 47.1748C116.753 47.2544 116.853 47.2904 116.934 47.3073C117.088 47.3392 117.261 47.3195 117.409 47.2921C117.715 47.2356 118.106 47.1062 118.473 46.9849L118.481 46.9824C118.804 46.8755 119.114 46.7732 119.378 46.7073C119.386 46.762 119.391 46.8183 119.397 46.883C119.4 46.917 119.404 46.9534 119.408 46.9931C119.421 47.1125 119.44 47.2651 119.493 47.4055C119.548 47.5542 119.651 47.7161 119.844 47.8122L119.844 47.8124L119.855 47.8175C120.024 47.8944 120.221 47.8997 120.394 47.8861C120.577 47.8717 120.782 47.8312 120.997 47.7753C121.028 47.7671 121.06 47.7586 121.092 47.7497C121.178 47.7986 121.265 47.8444 121.355 47.887L121.355 47.887L121.36 47.8896C122.028 48.194 123.086 48.1569 124.071 47.8523C125.068 47.5439 126.091 46.9312 126.659 45.9681L126.956 45.4649L126.372 45.4407L124.701 45.3712L124.581 45.3662L124.484 45.436C124.105 45.7063 123.134 46.2178 122.16 46.6249C121.824 46.7655 121.494 46.8907 121.195 46.9876C120.882 46.7704 120.607 46.4998 120.385 46.1871C120.247 45.9941 120.03 45.9486 119.882 45.9393C119.82 45.9354 119.755 45.9367 119.69 45.9419C119.671 45.9341 119.654 45.9279 119.639 45.923C119.567 45.8992 119.491 45.8881 119.422 45.8823C119.284 45.8708 119.118 45.8769 118.946 45.8904C118.621 45.9159 118.218 45.973 117.83 46.0281C117.804 46.0318 117.778 46.0355 117.752 46.0392C117.695 46.0473 117.638 46.0552 117.582 46.063C117.724 46.005 117.872 45.9454 118.016 45.8874C118.192 45.816 118.363 45.7471 118.51 45.6863C118.651 45.6281 118.779 45.5738 118.882 45.5267C118.976 45.4839 119.078 45.4347 119.146 45.3864ZM116.539 46.9304C116.539 46.9305 116.538 46.9294 116.536 46.9272C116.539 46.9293 116.54 46.9304 116.539 46.9304Z" fill="black" stroke="black" stroke-width="0.7"/>
<path d="M125.085 47.0392C125.82 46.5521 126.412 45.878 126.801 45.0861C127.182 44.2723 127.227 43.3412 126.928 42.494C126.628 41.6467 126.008 40.9513 125.2 40.5579C124.859 40.3852 124.478 40.3076 124.096 40.3334C123.715 40.3592 123.348 40.4874 123.034 40.7044L123.764 41.7332C123.899 41.6485 124.054 41.6015 124.213 41.597C124.373 41.5926 124.53 41.6308 124.669 41.7079C124.993 41.8745 125.27 42.1196 125.475 42.4208C125.68 42.722 125.807 43.0697 125.843 43.4322C125.932 44.3603 125.414 45.2518 124.349 46.0123L125.085 47.0392Z" fill="white"/>
<mask id="path-3-inside-1_587_10618" fill="white">
<path d="M124.85 45.3712C125.916 44.6114 125.931 44.3561 125.842 43.428C125.806 43.0655 125.68 42.7178 125.475 42.4166C125.27 42.1154 124.993 41.8703 124.669 41.7037C124.53 41.6266 124.372 41.5884 124.213 41.5928C124.054 41.5973 123.899 41.6443 123.764 41.729"/>
</mask>
<path d="M125.842 43.428L126.539 43.3613L126.539 43.3585L125.842 43.428ZM124.669 41.7037L124.33 42.3163L124.339 42.3214L124.349 42.3261L124.669 41.7037ZM125.256 45.9412C125.784 45.5649 126.203 45.2173 126.415 44.7545C126.633 44.2797 126.58 43.7882 126.539 43.3613L125.146 43.4947C125.194 43.996 125.177 44.0961 125.143 44.171C125.103 44.2577 124.982 44.4177 124.444 44.8011L125.256 45.9412ZM126.539 43.3585C126.491 42.8797 126.324 42.4206 126.054 42.0228L124.896 42.8105C125.035 43.0151 125.121 43.2512 125.146 43.4975L126.539 43.3585ZM126.054 42.0228C125.783 41.625 125.417 41.3014 124.989 41.0812L124.349 42.3261C124.569 42.4393 124.757 42.6058 124.896 42.8105L126.054 42.0228ZM125.007 41.091C124.759 40.9535 124.477 40.8851 124.193 40.8931L124.232 42.2925C124.267 42.2916 124.3 42.2998 124.33 42.3163L125.007 41.091ZM124.193 40.8931C123.909 40.901 123.632 40.985 123.391 41.1362L124.136 42.3218C124.165 42.3036 124.198 42.2935 124.232 42.2925L124.193 40.8931Z" fill="black" mask="url(#path-3-inside-1_587_10618)"/>
<mask id="path-5-outside-2_587_10618" maskUnits="userSpaceOnUse" x="119.666" y="38.3855" width="9.68727" height="10.1825" fill="black">
<rect fill="white" x="119.666" y="38.3855" width="9.68727" height="10.1825"/>
<path d="M123.028 40.6986C123.342 40.4815 123.71 40.3533 124.091 40.3275C124.472 40.3018 124.853 40.3793 125.194 40.5521C126.002 40.9455 126.623 41.6409 126.922 42.4881C127.222 43.3354 127.176 44.2665 126.795 45.0803C126.409 45.8724 125.819 46.5475 125.086 47.0364"/>
</mask>
<path d="M122.63 40.1225C122.312 40.3421 122.232 40.7781 122.452 41.0962C122.671 41.4144 123.107 41.4943 123.426 41.2746L122.63 40.1225ZM125.194 40.5521L124.877 41.1765L124.888 41.1815L125.194 40.5521ZM126.795 45.0803L127.424 45.387L127.429 45.3772L126.795 45.0803ZM124.697 46.454C124.376 46.6684 124.289 47.1031 124.503 47.4247C124.718 47.7464 125.152 47.8332 125.474 47.6188L124.697 46.454ZM123.426 41.2746C123.636 41.1291 123.882 41.0432 124.138 41.0259L124.044 39.6291C123.537 39.6634 123.048 39.8339 122.63 40.1225L123.426 41.2746ZM124.138 41.0259C124.394 41.0087 124.649 41.0607 124.877 41.1765L125.51 39.9277C125.057 39.698 124.55 39.5949 124.044 39.6291L124.138 41.0259ZM124.888 41.1815C125.53 41.4944 126.024 42.0475 126.262 42.7215L127.582 42.2548C127.221 41.2342 126.474 40.3965 125.5 39.9227L124.888 41.1815ZM126.262 42.7215C126.501 43.3954 126.464 44.136 126.161 44.7834L127.429 45.3772C127.888 44.3969 127.943 43.2754 127.582 42.2548L126.262 42.7215ZM126.166 44.7736C125.834 45.454 125.327 46.034 124.697 46.454L125.474 47.6188C126.311 47.061 126.984 46.2907 127.424 45.387L126.166 44.7736Z" fill="black" mask="url(#path-5-outside-2_587_10618)"/>
<path d="M126.916 43.7438C126.813 43.816 126.726 43.9072 126.657 44.0124C126.586 44.1227 126.537 44.2462 126.514 44.3756C126.49 44.505 126.493 44.6378 126.522 44.7661C126.551 44.8944 126.605 45.0157 126.681 45.1228C126.758 45.2298 126.855 45.3206 126.967 45.3896C127.079 45.4587 127.203 45.5047 127.333 45.5249C127.463 45.5451 127.596 45.5391 127.723 45.5074C127.851 45.4756 127.971 45.4187 128.076 45.34L128.076 45.3399L128.076 45.3398L128.076 45.3397L128.077 45.339L128.08 45.337L128.088 45.3306C128.095 45.3252 128.105 45.3176 128.117 45.3078C128.142 45.2882 128.177 45.26 128.22 45.2237C128.306 45.1511 128.425 45.0457 128.561 44.9114C128.83 44.6444 129.172 44.2564 129.448 43.7805C129.602 43.5141 129.743 43.228 129.879 42.9492C129.889 42.9291 129.899 42.909 129.909 42.8889C130.036 42.6275 130.161 42.3729 130.295 42.1297C130.586 41.6023 130.898 41.1769 131.309 40.9225C131.695 40.6835 132.044 40.5426 132.314 40.4595C132.537 40.3909 132.801 40.2682 132.998 40.0859C133.199 39.8993 133.38 39.5916 133.244 39.2183C133.122 38.8812 132.838 38.715 132.574 38.6443C132.313 38.5746 132.03 38.5829 131.796 38.6204C131.337 38.6942 130.695 38.8724 130.115 39.3055C129.643 39.6574 129.217 40.2805 128.838 40.9048C128.665 41.1903 128.503 41.4728 128.347 41.7462C128.141 42.1055 127.944 42.4492 127.742 42.7639C127.528 43.0964 127.315 43.3466 127.157 43.5123C127.079 43.595 127.014 43.6564 126.97 43.696C126.948 43.7159 126.932 43.7303 126.921 43.7392L126.916 43.7438ZM126.908 43.7499C126.908 43.75 126.908 43.75 126.908 43.7499L126.908 43.7499Z" fill="white" stroke="black" stroke-width="0.7" stroke-miterlimit="10"/>
<path d="M123.764 41.7295C123.469 41.9388 123.464 42.3485 123.485 42.574C123.536 42.9696 123.683 43.3467 123.914 43.672C124.145 43.9972 124.452 44.2605 124.809 44.4387C125.502 44.7548 126.303 44.6119 127.124 44.0263L127.855 45.055C126.664 45.9121 125.383 46.0918 124.279 45.5886C123.718 45.3207 123.234 44.9141 122.873 44.4073C122.513 43.9006 122.287 43.3103 122.218 42.6922C122.134 41.8542 122.431 41.1198 123.024 40.6962L123.764 41.7295Z" fill="white"/>
<mask id="path-9-outside-3_587_10618" maskUnits="userSpaceOnUse" x="119.846" y="39.2074" width="10.6778" height="9.192" fill="black">
<rect fill="white" x="119.846" y="39.2074" width="10.6778" height="9.192"/>
<path d="M127.86 45.057C126.669 45.914 125.388 46.0937 124.284 45.5905C123.722 45.3226 123.239 44.9161 122.878 44.4093C122.518 43.9025 122.292 43.3122 122.223 42.6941C122.139 41.8562 122.436 41.1217 123.029 40.6982"/>
</mask>
<path d="M124.284 45.5905L123.982 46.2224L123.993 46.2275L124.284 45.5905ZM122.223 42.6941L121.526 42.7639L121.527 42.7719L122.223 42.6941ZM127.451 44.4889C126.421 45.2304 125.405 45.3322 124.574 44.9536L123.993 46.2275C125.371 46.8553 126.918 46.5976 128.269 45.625L127.451 44.4889ZM124.585 44.9588C124.131 44.7421 123.74 44.4133 123.448 44.0035L122.308 44.8151C122.737 45.4188 123.314 45.9031 123.982 46.2223L124.585 44.9588ZM123.448 44.0035C123.157 43.5936 122.975 43.1162 122.919 42.6163L121.527 42.7719C121.61 43.5082 121.878 44.2114 122.308 44.8151L123.448 44.0035ZM122.919 42.6244C122.856 41.9898 123.082 41.5203 123.436 41.2678L122.622 40.1286C121.79 40.7231 121.422 41.7226 121.526 42.7639L122.919 42.6244Z" fill="black" mask="url(#path-9-outside-3_587_10618)"/>
<mask id="path-11-inside-4_587_10618" fill="white">
<path d="M123.765 41.7294C123.469 41.9387 123.465 42.3484 123.486 42.5739C123.536 42.9695 123.683 43.3466 123.914 43.6719C124.145 43.9971 124.452 44.2604 124.809 44.4386C125.503 44.7547 126.3 44.6062 127.121 44.0206"/>
</mask>
<path d="M124.169 42.3005C124.485 42.077 124.559 41.64 124.336 41.3246C124.112 41.0092 123.675 40.9347 123.36 41.1583L124.169 42.3005ZM123.486 42.5739L122.789 42.6393L122.79 42.6509L122.791 42.6624L123.486 42.5739ZM124.809 44.4386L124.496 45.0649L124.508 45.0704L124.519 45.0755L124.809 44.4386ZM127.527 44.5904C127.842 44.3658 127.915 43.9287 127.691 43.614C127.466 43.2993 127.029 43.2262 126.714 43.4508L127.527 44.5904ZM123.36 41.1583C123.026 41.3948 122.883 41.7291 122.824 41.9911C122.765 42.2494 122.775 42.4907 122.789 42.6393L124.183 42.5085C124.179 42.4735 124.177 42.4348 124.179 42.3961C124.18 42.3568 124.184 42.3245 124.189 42.3C124.201 42.2485 124.208 42.2733 124.169 42.3005L123.36 41.1583ZM122.791 42.6624C122.856 43.1721 123.046 43.658 123.343 44.077L124.485 43.2667C124.321 43.0353 124.216 42.767 124.18 42.4855L122.791 42.6624ZM123.343 44.077C123.641 44.4961 124.037 44.8353 124.496 45.0649L125.122 43.8123C124.868 43.6855 124.649 43.4981 124.485 43.2667L123.343 44.077ZM124.519 45.0755C125.516 45.5302 126.582 45.2649 127.527 44.5904L126.714 43.4508C126.018 43.9476 125.489 43.9792 125.099 43.8016L124.519 45.0755Z" fill="black" mask="url(#path-11-inside-4_587_10618)"/>
<path d="M127 44.3985L127.501 43.999L128 44.9985L127.5 45.2985L127 44.3985Z" fill="white"/>
<circle cx="67.768" cy="91.2331" r="2.96833" transform="rotate(52.9097 67.768 91.2331)" fill="black"/>
<mask id="path-15-inside-5_587_10618" fill="white">
<path fill-rule="evenodd" clip-rule="evenodd" d="M75.8263 91.9265C75.8335 91.9223 75.8404 91.9177 75.8471 91.9126C76.3112 91.5617 75.2546 89.3819 73.487 87.0439C71.7194 84.7059 69.9102 83.095 69.446 83.446C69.4394 83.451 69.4331 83.4564 69.427 83.4622L69.4262 83.4611L65.1792 87.6977L65.184 87.7042C64.4787 88.4119 65.009 90.4135 66.4225 92.2831C67.836 94.1527 69.6172 95.2086 70.4904 94.7229L70.4953 94.7294L75.8272 91.9277L75.8263 91.9265Z"/>
</mask>
<path fill-rule="evenodd" clip-rule="evenodd" d="M75.8263 91.9265C75.8335 91.9223 75.8404 91.9177 75.8471 91.9126C76.3112 91.5617 75.2546 89.3819 73.487 87.0439C71.7194 84.7059 69.9102 83.095 69.446 83.446C69.4394 83.451 69.4331 83.4564 69.427 83.4622L69.4262 83.4611L65.1792 87.6977L65.184 87.7042C64.4787 88.4119 65.009 90.4135 66.4225 92.2831C67.836 94.1527 69.6172 95.2086 70.4904 94.7229L70.4953 94.7294L75.8272 91.9277L75.8263 91.9265Z" fill="white"/>
<path d="M75.8263 91.9265L75.4719 91.3229L74.7935 91.7211L75.2679 92.3487L75.8263 91.9265ZM69.427 83.4622L68.8686 83.8843L69.3431 84.5118L69.9112 83.9677L69.427 83.4622ZM69.4262 83.4611L69.9846 83.0389L69.5003 82.3984L68.9318 82.9655L69.4262 83.4611ZM65.1792 87.6977L64.6848 87.2021L64.2528 87.6331L64.6208 88.1199L65.1792 87.6977ZM65.184 87.7042L65.6799 88.1983L66.1094 87.7674L65.7424 87.282L65.184 87.7042ZM70.4904 94.7229L71.0488 94.3008L70.6818 93.8154L70.1501 94.1112L70.4904 94.7229ZM70.4953 94.7294L69.9369 95.1515L70.2951 95.6253L70.8209 95.349L70.4953 94.7294ZM75.8272 91.9277L76.1528 92.5474L76.8831 92.1637L76.3856 91.5056L75.8272 91.9277ZM76.1807 92.5302C76.2112 92.5123 76.2407 92.4926 76.2692 92.471L75.4249 91.3542C75.4401 91.3428 75.4558 91.3323 75.4719 91.3229L76.1807 92.5302ZM76.2692 92.471C76.5319 92.2725 76.6206 91.9909 76.6462 91.7844C76.6715 91.5792 76.6464 91.3713 76.6075 91.1877C76.529 90.8167 76.3575 90.3795 76.1339 89.9181C75.6814 88.9847 74.9482 87.8158 74.0454 86.6217L72.9286 87.466C73.7935 88.6099 74.4723 89.7 74.8741 90.5287C75.0775 90.9484 75.1936 91.2681 75.2379 91.4775C75.2604 91.5842 75.2555 91.6224 75.2567 91.6127C75.2581 91.6018 75.2783 91.4651 75.4249 91.3542L76.2692 92.471ZM74.0454 86.6217C73.1426 85.4276 72.2179 84.4035 71.4432 83.7138C71.0603 83.3728 70.6864 83.0886 70.3508 82.9119C70.1848 82.8245 69.9916 82.7436 69.7873 82.7121C69.5817 82.6804 69.2865 82.689 69.0239 82.8876L69.8682 84.0043C69.7216 84.1152 69.5846 84.0974 69.5736 84.0957C69.564 84.0942 69.6021 84.0999 69.6986 84.1507C69.888 84.2504 70.1639 84.4492 70.5123 84.7594C71.2001 85.3718 72.0638 86.3221 72.9286 87.466L74.0454 86.6217ZM69.0239 82.8876C68.9954 82.9091 68.9684 82.9322 68.9428 82.9566L69.9112 83.9677C69.8977 83.9806 69.8834 83.9929 69.8682 84.0043L69.0239 82.8876ZM68.8678 83.8832L68.8686 83.8843L69.9854 83.04L69.9846 83.0389L68.8678 83.8832ZM65.6735 88.1933L69.9206 83.9566L68.9318 82.9655L64.6848 87.2021L65.6735 88.1933ZM65.7424 87.282L65.7375 87.2756L64.6208 88.1199L64.6257 88.1263L65.7424 87.282ZM64.6882 87.21C64.3597 87.5397 64.2202 87.9743 64.1838 88.3949C64.1473 88.8167 64.2083 89.2768 64.3327 89.7397C64.5819 90.6667 65.1152 91.7147 65.8641 92.7053L66.9809 91.861C66.3163 90.9819 65.8777 90.0943 65.6847 89.3762C65.588 89.0165 65.5603 88.7267 65.5786 88.5157C65.597 88.3035 65.6557 88.2225 65.6799 88.1983L64.6882 87.21ZM65.8641 92.7053C66.613 93.6958 67.4759 94.4946 68.2999 94.9871C68.7113 95.233 69.1374 95.4171 69.5531 95.497C69.9677 95.5766 70.4239 95.5609 70.8307 95.3346L70.1501 94.1112C70.1203 94.1278 70.0263 94.1623 69.8172 94.1221C69.6092 94.0821 69.3379 93.9765 69.0182 93.7854C68.3799 93.4039 67.6455 92.74 66.9809 91.861L65.8641 92.7053ZM71.0537 94.3072L71.0488 94.3008L69.932 95.1451L69.9369 95.1515L71.0537 94.3072ZM75.5016 91.3081L70.1697 94.1097L70.8209 95.349L76.1528 92.5474L75.5016 91.3081ZM75.2679 92.3487L75.2688 92.3499L76.3856 91.5056L76.3847 91.5044L75.2679 92.3487Z" fill="black" mask="url(#path-15-inside-5_587_10618)"/>
<path fill-rule="evenodd" clip-rule="evenodd" d="M75.5467 91.1933C75.5536 91.1893 75.5602 91.1849 75.5665 91.1801C75.9877 90.8617 75.0288 88.8835 73.4247 86.7617C71.8206 84.64 70.1787 83.1781 69.7575 83.4966C69.7512 83.5013 69.7452 83.5065 69.7395 83.512L69.7386 83.5108L65.8844 87.3556L65.8888 87.3615C65.2495 88.0043 65.7309 89.8201 67.0133 91.5163C68.2956 93.2125 69.9115 94.1707 70.7042 93.7308L70.7088 93.7369L75.5476 91.1944L75.5467 91.1933Z" fill="#EBE9E9"/>
<circle cx="124.809" cy="86.4989" r="3.00175" transform="rotate(-38.0257 124.809 86.4989)" fill="black"/>
<mask id="path-19-inside-6_587_10618" fill="white">
<path fill-rule="evenodd" clip-rule="evenodd" d="M124.849 77.8407C124.844 77.8332 124.839 77.826 124.834 77.8191C124.471 77.3556 122.285 78.4599 119.95 80.2858C117.615 82.1116 116.016 83.9676 116.379 84.4311C116.384 84.438 116.39 84.4446 116.396 84.4508L116.395 84.4517L121.146 89.0504L121.153 89.0454C121.881 89.7455 123.895 89.1761 125.761 87.7166C127.627 86.2572 128.665 84.4397 128.161 83.5643L128.168 83.5591L124.85 77.8397L124.849 77.8407Z"/>
</mask>
<path fill-rule="evenodd" clip-rule="evenodd" d="M124.849 77.8407C124.844 77.8332 124.839 77.826 124.834 77.8191C124.471 77.3556 122.285 78.4599 119.95 80.2858C117.615 82.1116 116.016 83.9676 116.379 84.4311C116.384 84.438 116.39 84.4446 116.396 84.4508L116.395 84.4517L121.146 89.0504L121.153 89.0454C121.881 89.7455 123.895 89.1761 125.761 87.7166C127.627 86.2572 128.665 84.4397 128.161 83.5643L128.168 83.5591L124.85 77.8397L124.849 77.8407Z" fill="white"/>
<path d="M124.849 77.8407L124.249 78.2022L124.658 78.879L125.28 78.3921L124.849 77.8407ZM116.396 84.4508L116.827 85.0022L117.45 84.5154L116.891 83.9561L116.396 84.4508ZM116.395 84.4517L115.964 83.9003L115.331 84.3955L115.908 84.9546L116.395 84.4517ZM121.146 89.0504L120.659 89.5534L121.097 89.9773L121.577 89.6018L121.146 89.0504ZM121.153 89.0454L121.638 88.5408L121.2 88.1197L120.721 88.4939L121.153 89.0454ZM128.161 83.5643L127.73 83.0129L127.252 83.3871L127.555 83.9136L128.161 83.5643ZM128.168 83.5591L128.599 84.1105L129.079 83.7351L128.774 83.2078L128.168 83.5591ZM124.85 77.8397L125.456 77.4884L125.052 76.793L124.419 77.2882L124.85 77.8397ZM125.448 77.4792C125.429 77.4477 125.408 77.4172 125.385 77.3879L124.283 78.2503C124.27 78.2348 124.259 78.2187 124.249 78.2022L125.448 77.4792ZM125.385 77.3879C125.182 77.1279 124.898 77.0433 124.69 77.0211C124.484 76.999 124.275 77.0276 124.09 77.0698C123.717 77.1551 123.279 77.3354 122.816 77.5691C121.88 78.0417 120.711 78.8021 119.519 79.7344L120.381 80.8372C121.524 79.9437 122.615 79.2389 123.447 78.8187C123.868 78.606 124.19 78.483 124.402 78.4346C124.51 78.4099 124.55 78.4141 124.541 78.4131C124.531 78.4121 124.395 78.3944 124.283 78.2503L125.385 77.3879ZM119.519 79.7344C118.327 80.6667 117.307 81.6182 116.623 82.4124C116.284 82.8051 116.004 83.1873 115.831 83.5287C115.745 83.6976 115.667 83.8934 115.639 84.0993C115.61 84.3065 115.624 84.6023 115.827 84.8623L116.93 83.9999C117.043 84.144 117.027 84.2804 117.026 84.2903C117.025 84.2988 117.03 84.2594 117.08 84.1605C117.178 83.9665 117.375 83.6837 117.683 83.3262C118.292 82.6201 119.239 81.7307 120.381 80.8372L119.519 79.7344ZM115.827 84.8623C115.85 84.8916 115.875 84.9194 115.901 84.9454L116.891 83.9561C116.905 83.9698 116.918 83.9844 116.93 83.9999L115.827 84.8623ZM116.826 85.0031L116.827 85.0022L115.965 83.8994L115.964 83.9003L116.826 85.0031ZM121.633 88.5475L116.882 83.9487L115.908 84.9546L120.659 89.5534L121.633 88.5475ZM120.721 88.4939L120.715 88.499L121.577 89.6018L121.584 89.5968L120.721 88.4939ZM120.667 89.5499C121.005 89.8742 121.444 90.0072 121.869 90.0367C122.294 90.0663 122.758 89.9971 123.223 89.8637C124.155 89.5967 125.204 89.0408 126.192 88.268L125.33 87.1652C124.452 87.8519 123.561 88.3105 122.837 88.5179C122.474 88.6219 122.181 88.655 121.966 88.64C121.75 88.625 121.664 88.5666 121.638 88.5408L120.667 89.5499ZM126.192 88.268C127.18 87.4953 127.973 86.6108 128.457 85.7708C128.698 85.3515 128.877 84.9187 128.951 84.4984C129.025 84.0792 129.002 83.6205 128.768 83.215L127.555 83.9136C127.573 83.9458 127.61 84.0425 127.572 84.256C127.535 84.4682 127.432 84.7452 127.243 85.0721C126.868 85.7246 126.208 86.4785 125.33 87.1652L126.192 88.268ZM127.737 83.0077L127.73 83.0129L128.593 84.1157L128.599 84.1105L127.737 83.0077ZM124.245 78.1909L127.563 83.9103L128.774 83.2078L125.456 77.4884L124.245 78.1909ZM125.28 78.3921L125.281 78.3911L124.419 77.2882L124.418 77.2893L125.28 78.3921Z" fill="black" mask="url(#path-19-inside-6_587_10618)"/>
<path d="M119.328 85.5206L117.369 83.3295L123.398 77.5537C124.549 79.2967 126.625 83.1746 127.092 84.2438C127.558 85.313 125.691 86.6896 124.699 87.2443C124.629 87.1407 124.121 86.7191 122.647 85.8616C121.173 85.004 119.727 85.3754 119.328 85.5206Z" fill="#EBE9E9"/>
<mask id="path-22-inside-7_587_10618" fill="white">
<path fill-rule="evenodd" clip-rule="evenodd" d="M96.0008 40.5764L77.5379 47.2964L77.538 47.2967C64.801 51.9849 58.2445 66.096 62.8905 78.8606C67.5468 91.6538 81.6925 98.25 94.4857 93.5937C94.5185 93.5818 94.5512 93.5698 94.5839 93.5577L112.863 86.9047L112.862 86.9013C113.005 86.8521 113.148 86.8015 113.291 86.7496C126.084 82.0932 132.68 67.9476 128.024 55.1544C123.367 42.3612 109.222 35.7649 96.4284 40.4213C96.2856 40.4733 96.1436 40.5264 96.0024 40.5807L96.0008 40.5764Z"/>
</mask>
<path fill-rule="evenodd" clip-rule="evenodd" d="M96.0008 40.5764L77.5379 47.2964L77.538 47.2967C64.801 51.9849 58.2445 66.096 62.8905 78.8606C67.5468 91.6538 81.6925 98.25 94.4857 93.5937C94.5185 93.5818 94.5512 93.5698 94.5839 93.5577L112.863 86.9047L112.862 86.9013C113.005 86.8521 113.148 86.8015 113.291 86.7496C126.084 82.0932 132.68 67.9476 128.024 55.1544C123.367 42.3612 109.222 35.7649 96.4284 40.4213C96.2856 40.4733 96.1436 40.5264 96.0024 40.5807L96.0008 40.5764Z" fill="white"/>
<path d="M77.5379 47.2964L77.2985 46.6386L76.6407 46.878L76.8801 47.5358L77.5379 47.2964ZM96.0008 40.5764L96.6586 40.337L96.4192 39.6792L95.7614 39.9186L96.0008 40.5764ZM77.538 47.2967L77.7798 47.9537L78.4344 47.7127L78.1958 47.0573L77.538 47.2967ZM94.5839 93.5577L94.3445 92.8999L94.3418 92.9009L94.5839 93.5577ZM112.863 86.9047L113.102 87.5625L113.76 87.3231L113.521 86.6653L112.863 86.9047ZM112.862 86.9013L112.634 86.2393L111.96 86.4709L112.204 87.1407L112.862 86.9013ZM96.0024 40.5807L95.3446 40.8201L95.5884 41.4899L96.2537 41.2341L96.0024 40.5807ZM77.7773 47.9542L96.2402 41.2342L95.7614 39.9186L77.2985 46.6386L77.7773 47.9542ZM78.1958 47.0573L78.1957 47.057L76.8801 47.5358L76.8802 47.5362L78.1958 47.0573ZM63.5483 78.6212C59.0342 66.219 65.4045 52.5087 77.7798 47.9537L77.2962 46.6398C64.1974 51.4611 57.4548 65.9729 62.2327 79.1L63.5483 78.6212ZM94.2463 92.9359C81.8163 97.46 68.0724 91.0511 63.5483 78.6212L62.2327 79.1C67.0213 92.2565 81.5686 99.0401 94.7251 94.2515L94.2463 92.9359ZM94.3418 92.9009C94.31 92.9126 94.2781 92.9243 94.2463 92.9359L94.7251 94.2515C94.7588 94.2392 94.7925 94.2269 94.8261 94.2145L94.3418 92.9009ZM112.624 86.2469L94.3445 92.8999L94.8233 94.2155L113.102 87.5625L112.624 86.2469ZM112.204 87.1407L112.205 87.1441L113.521 86.6653L113.519 86.6619L112.204 87.1407ZM113.051 86.0918C112.912 86.1423 112.773 86.1915 112.634 86.2393L113.089 87.5633C113.236 87.5127 113.383 87.4608 113.53 87.4073L113.051 86.0918ZM127.366 55.3938C131.89 67.8237 125.481 81.5676 113.051 86.0918L113.53 87.4073C126.686 82.6188 133.47 68.0714 128.681 54.915L127.366 55.3938ZM96.6678 41.0791C109.098 36.555 122.842 42.9639 127.366 55.3938L128.681 54.915C123.893 41.7585 109.345 34.9749 96.189 39.7635L96.6678 41.0791ZM96.2537 41.2341C96.391 41.1813 96.529 41.1296 96.6678 41.0791L96.189 39.7635C96.0423 39.8169 95.8963 39.8715 95.7511 39.9274L96.2537 41.2341ZM95.343 40.8158L95.3446 40.8201L96.6602 40.3413L96.6586 40.337L95.343 40.8158Z" fill="black" mask="url(#path-22-inside-7_587_10618)"/>
<path d="M68.4164 52.5533L68.7275 53.408L72.5002 50.9995L76.5002 48.9995L74.8204 48.2864L74.4614 48.4171L68.4164 52.5533Z" fill="white"/>
<path d="M96.8303 59.3451C96.5815 58.6613 95.711 58.3974 95.3068 58.3509L94.9203 65.2675C95.5653 65.0005 96.9888 64.3017 97.5233 63.6425C98.1914 62.8186 97.1415 60.1999 96.8303 59.3451Z" fill="#EBE9E9"/>
<path d="M113.747 81.3568C126.335 76.1556 128.334 63.7217 127.76 58.155C129.146 68.8791 126.614 74.1567 121.308 80.0568C116.002 85.9568 100.235 90.2435 97.1269 91.2781C94.0186 92.3126 98.2692 90.9591 90.0166 93.2852C83.4145 95.1461 76.6469 92.2788 73.9366 90.329L72.5068 90.6558L74.4803 89.1631L77.1452 86.6444C77.355 86.6003 78.1601 86.5073 79.7019 86.4882C81.6292 86.4643 82.1506 88.6946 89.3469 88.7857C96.5433 88.8769 98.0118 87.8584 113.747 81.3568Z" fill="#EBE9E9"/>
<path d="M91.9575 60.0531C90.8689 58.1261 88.7519 56.1217 87.8295 55.3604C88.8682 55.1114 91.1477 54.6366 91.9559 54.7296C92.9662 54.8459 94.7232 57.0136 95.1899 58.2958C95.5632 59.3215 95.1292 63.4483 94.8656 65.3834C94.3498 64.4095 93.046 61.9801 91.9575 60.0531Z" stroke="black" stroke-width="0.7"/>
<path d="M97.5006 64.9086C97.915 64.6287 98.7158 63.8855 98.6036 63.152C98.4635 62.235 97.8098 59.3753 97.4444 58.6371C97.0789 57.8989 95.656 55.3192 93.8606 54.9079C92.4244 54.5788 90.8634 54.7404 90.2625 54.8623" stroke="black" stroke-width="0.7"/>
<path d="M67.5598 48.6058C67.4604 49.1841 68.1397 52.2431 68.5001 53.4994C69.145 52.8775 69.9544 51.9935 71.0888 51.387C71.9964 50.9018 73.5184 50.4382 74.166 50.267C72.7124 49.3763 69.7417 47.5794 69.4867 47.5173C69.1681 47.4396 67.6839 47.8831 67.5598 48.6058Z" stroke="black" stroke-width="0.7"/>
<path d="M76.2794 48.6265C75.2639 48.3185 73.0012 47.6513 72.0747 47.4465C70.9167 47.1903 69.6143 47.3352 68.845 47.6152" stroke="black" stroke-width="0.7"/>
<circle cx="91.429" cy="99.7053" r="3.00175" transform="rotate(-11.3422 91.429 99.7053)" fill="black"/>
<mask id="path-32-inside-8_587_10618" fill="white">
<path fill-rule="evenodd" clip-rule="evenodd" d="M95.6016 92.6704C95.6009 92.6617 95.5997 92.6531 95.598 92.6446C95.4823 92.0677 93.0326 92.0725 90.1265 92.6554C87.2204 93.2384 84.9583 94.1786 85.0741 94.7556C85.0758 94.7641 85.078 94.7725 85.0807 94.7807L85.079 94.7811L87.0723 100.511L87.0805 100.509C87.4162 101.462 89.4718 101.858 91.7949 101.392C94.1181 100.926 95.862 99.7677 95.8043 98.7592L95.8125 98.7575L95.6029 92.6701L95.6016 92.6704Z"/>
</mask>
<path fill-rule="evenodd" clip-rule="evenodd" d="M95.6016 92.6704C95.6009 92.6617 95.5997 92.6531 95.598 92.6446C95.4823 92.0677 93.0326 92.0725 90.1265 92.6554C87.2204 93.2384 84.9583 94.1786 85.0741 94.7556C85.0758 94.7641 85.078 94.7725 85.0807 94.7807L85.079 94.7811L87.0723 100.511L87.0805 100.509C87.4162 101.462 89.4718 101.858 91.7949 101.392C94.1181 100.926 95.862 99.7677 95.8043 98.7592L95.8125 98.7575L95.6029 92.6701L95.6016 92.6704Z" fill="white"/>
<path d="M95.6016 92.6704L94.9037 92.725L94.9653 93.512L95.7392 93.3567L95.6016 92.6704ZM85.0807 94.7807L85.2184 95.4671L85.9924 95.3118L85.7456 94.562L85.0807 94.7807ZM85.079 94.7811L84.9414 94.0947L84.1541 94.2527L84.4179 95.0111L85.079 94.7811ZM87.0723 100.511L86.4111 100.741L86.6116 101.317L87.2099 101.197L87.0723 100.511ZM87.0805 100.509L87.7407 100.276L87.5387 99.7032L86.9428 99.8227L87.0805 100.509ZM95.8043 98.7592L95.6667 98.0728L95.0708 98.1924L95.1055 98.7991L95.8043 98.7592ZM95.8125 98.7575L95.9501 99.4439L96.5325 99.327L96.512 98.7335L95.8125 98.7575ZM95.6029 92.6701L96.3025 92.646L96.2742 91.8215L95.4653 91.9838L95.6029 92.6701ZM96.2994 92.6158C96.2966 92.5795 96.2916 92.5431 96.2843 92.507L94.9117 92.7823C94.9078 92.7631 94.9052 92.744 94.9037 92.725L96.2994 92.6158ZM96.2843 92.507C96.2194 92.1834 96.0038 91.9804 95.828 91.8671C95.6532 91.7545 95.4537 91.6863 95.2699 91.6412C94.8984 91.5499 94.4255 91.5141 93.9072 91.5151C92.859 91.5172 91.4727 91.6715 89.9888 91.9691L90.2642 93.3418C91.6863 93.0565 92.978 92.9169 93.91 92.9151C94.3819 92.9141 94.7248 92.9489 94.9359 93.0007C95.0435 93.0272 95.077 93.0487 95.0697 93.044C95.0614 93.0386 94.9476 92.9617 94.9117 92.7823L96.2843 92.507ZM89.9888 91.9691C88.5049 92.2668 87.1664 92.659 86.1984 93.0614C85.7199 93.2603 85.2974 93.4757 84.9898 93.7032C84.8376 93.8157 84.6798 93.9556 84.562 94.1269C84.4435 94.2992 84.3228 94.5696 84.3877 94.8932L85.7604 94.6179C85.7964 94.7973 85.7211 94.9121 85.7155 94.9203C85.7106 94.9274 85.7332 94.8946 85.8223 94.8288C85.9971 94.6995 86.3 94.5353 86.7358 94.3541C87.5964 93.9964 88.842 93.627 90.2642 93.3418L89.9888 91.9691ZM84.3877 94.8932C84.395 94.9294 84.4044 94.9649 84.4158 94.9995L85.7456 94.562C85.7516 94.5801 85.7566 94.5988 85.7604 94.6179L84.3877 94.8932ZM85.2167 95.4674L85.2184 95.4671L84.943 94.0944L84.9414 94.0947L85.2167 95.4674ZM87.7334 100.281L85.7402 94.5511L84.4179 95.0111L86.4111 100.741L87.7334 100.281ZM86.9428 99.8227L86.9346 99.8244L87.2099 101.197L87.2181 101.195L86.9428 99.8227ZM86.4203 100.742C86.5758 101.183 86.9089 101.499 87.275 101.717C87.6421 101.934 88.087 102.08 88.5625 102.17C89.5151 102.35 90.7025 102.325 91.9326 102.078L91.6573 100.705C90.5642 100.925 89.5623 100.934 88.8223 100.795C88.4516 100.725 88.1744 100.622 87.9891 100.512C87.8027 100.402 87.753 100.311 87.7407 100.276L86.4203 100.742ZM91.9326 102.078C93.1627 101.831 94.268 101.397 95.0775 100.863C95.4817 100.597 95.8358 100.291 96.0905 99.9482C96.3446 99.6067 96.5299 99.1864 96.5032 98.7192L95.1055 98.7991C95.1076 98.8362 95.0966 98.9388 94.9673 99.1126C94.8386 99.2855 94.6224 99.4867 94.3073 99.6943C93.6785 100.109 92.7503 100.486 91.6573 100.705L91.9326 102.078ZM95.6748 98.0712L95.6667 98.0728L95.942 99.4455L95.9501 99.4439L95.6748 98.0712ZM94.9034 92.6942L95.1129 98.7816L96.512 98.7335L96.3025 92.646L94.9034 92.6942ZM95.7392 93.3567L95.7406 93.3565L95.4653 91.9838L95.4639 91.9841L95.7392 93.3567Z" fill="black" mask="url(#path-32-inside-8_587_10618)"/>
<path d="M90.803 94.6448C90.349 94.0356 87.9273 93.6587 86.0622 93.8535L96.8322 89.9335L97.7495 90.8581C96.7808 91.2107 95.549 91.8333 94.9524 92.7474C94.2066 93.8899 95.4202 98.2884 94.7521 99.1123C94.2177 99.7715 93.0479 99.9262 92.5298 99.9212C92.2729 98.24 91.257 95.254 90.803 94.6448Z" fill="#EBE9E9"/>
<mask id="path-35-inside-9_587_10618" fill="white">
<path fill-rule="evenodd" clip-rule="evenodd" d="M95.6016 92.6704C95.6009 92.6617 95.5997 92.6531 95.598 92.6446C95.4823 92.0677 93.0326 92.0725 90.1265 92.6554C87.2204 93.2384 84.9583 94.1786 85.0741 94.7556C85.0758 94.7641 85.078 94.7725 85.0807 94.7807L85.079 94.7811L87.0723 100.511L87.0805 100.509C87.4162 101.462 89.4718 101.858 91.7949 101.392C94.1181 100.926 95.862 99.7677 95.8043 98.7592L95.8125 98.7575L95.6029 92.6701L95.6016 92.6704Z"/>
</mask>
<path d="M95.6016 92.6704L94.9037 92.725L94.9653 93.512L95.7392 93.3567L95.6016 92.6704ZM85.0807 94.7807L85.2184 95.4671L85.9924 95.3118L85.7456 94.562L85.0807 94.7807ZM85.079 94.7811L84.9414 94.0947L84.1541 94.2527L84.4179 95.0111L85.079 94.7811ZM87.0723 100.511L86.4111 100.741L86.6116 101.317L87.2099 101.197L87.0723 100.511ZM87.0805 100.509L87.7407 100.276L87.5387 99.7032L86.9428 99.8227L87.0805 100.509ZM95.8043 98.7592L95.6667 98.0728L95.0708 98.1924L95.1055 98.7991L95.8043 98.7592ZM95.8125 98.7575L95.9501 99.4439L96.5325 99.327L96.512 98.7335L95.8125 98.7575ZM95.6029 92.6701L96.3025 92.646L96.2742 91.8215L95.4653 91.9838L95.6029 92.6701ZM96.2994 92.6158C96.2966 92.5795 96.2916 92.5431 96.2843 92.507L94.9117 92.7823C94.9078 92.7631 94.9052 92.744 94.9037 92.725L96.2994 92.6158ZM96.2843 92.507C96.2194 92.1834 96.0038 91.9804 95.828 91.8671C95.6532 91.7545 95.4537 91.6863 95.2699 91.6412C94.8984 91.5499 94.4255 91.5141 93.9072 91.5151C92.859 91.5172 91.4727 91.6715 89.9888 91.9691L90.2642 93.3418C91.6863 93.0565 92.978 92.9169 93.91 92.9151C94.3819 92.9141 94.7248 92.9489 94.9359 93.0007C95.0435 93.0272 95.077 93.0487 95.0697 93.044C95.0614 93.0386 94.9476 92.9617 94.9117 92.7823L96.2843 92.507ZM89.9888 91.9691C88.5049 92.2668 87.1664 92.659 86.1984 93.0614C85.7199 93.2603 85.2974 93.4757 84.9898 93.7032C84.8376 93.8157 84.6798 93.9556 84.562 94.1269C84.4435 94.2992 84.3228 94.5696 84.3877 94.8932L85.7604 94.6179C85.7964 94.7973 85.7211 94.9121 85.7155 94.9203C85.7106 94.9274 85.7332 94.8946 85.8223 94.8288C85.9971 94.6995 86.3 94.5353 86.7358 94.3541C87.5964 93.9964 88.842 93.627 90.2642 93.3418L89.9888 91.9691ZM84.3877 94.8932C84.395 94.9294 84.4044 94.9649 84.4158 94.9995L85.7456 94.562C85.7516 94.5801 85.7566 94.5988 85.7604 94.6179L84.3877 94.8932ZM85.2167 95.4674L85.2184 95.4671L84.943 94.0944L84.9414 94.0947L85.2167 95.4674ZM87.7334 100.281L85.7402 94.5511L84.4179 95.0111L86.4111 100.741L87.7334 100.281ZM86.9428 99.8227L86.9346 99.8244L87.2099 101.197L87.2181 101.195L86.9428 99.8227ZM86.4203 100.742C86.5758 101.183 86.9089 101.499 87.275 101.717C87.6421 101.934 88.087 102.08 88.5625 102.17C89.5151 102.35 90.7025 102.325 91.9326 102.078L91.6573 100.705C90.5642 100.925 89.5623 100.934 88.8223 100.795C88.4516 100.725 88.1744 100.622 87.9891 100.512C87.8027 100.402 87.753 100.311 87.7407 100.276L86.4203 100.742ZM91.9326 102.078C93.1627 101.831 94.268 101.397 95.0775 100.863C95.4817 100.597 95.8358 100.291 96.0905 99.9482C96.3446 99.6067 96.5299 99.1864 96.5032 98.7192L95.1055 98.7991C95.1076 98.8362 95.0966 98.9388 94.9673 99.1126C94.8386 99.2855 94.6224 99.4867 94.3073 99.6943C93.6785 100.109 92.7503 100.486 91.6573 100.705L91.9326 102.078ZM95.6748 98.0712L95.6667 98.0728L95.942 99.4455L95.9501 99.4439L95.6748 98.0712ZM94.9034 92.6942L95.1129 98.7816L96.512 98.7335L96.3025 92.646L94.9034 92.6942ZM95.7392 93.3567L95.7406 93.3565L95.4653 91.9838L95.4639 91.9841L95.7392 93.3567Z" fill="black" mask="url(#path-35-inside-9_587_10618)"/>
<path d="M71.4812 74.4859L69.9479 73.8664C67.8111 73.0034 65.8257 73.218 64.4436 74.2565L61.9178 76.1518C63.301 75.1139 65.2853 74.8988 67.4221 75.7617L68.9554 76.3812C72.7655 77.9204 75.617 82.3066 75.3235 86.1773C75.1945 87.8777 73.1313 89.9132 72.048 90.7264L76.3686 89.8314C76.3686 89.8314 79.8285 89.2497 79.8964 88.3538C79.999 87.0007 77.669 81.5124 77.0964 80.1769C76.031 77.6921 73.9583 75.4865 71.4801 74.4854L71.4812 74.4859Z" fill="white" stroke="black" stroke-width="0.7" stroke-miterlimit="10" stroke-linejoin="bevel"/>
<mask id="mask0_587_10618" style="mask-type:alpha" maskUnits="userSpaceOnUse" x="61" y="72" width="20" height="20">
<path d="M71.4812 74.4859L69.9479 73.8664C67.8111 73.0034 65.8256 73.218 64.4436 74.2565L61.9177 76.1518C63.301 75.1139 65.2852 74.8988 67.422 75.7617L68.9553 76.3812C72.7655 77.9204 75.6169 82.3066 75.3234 86.1773C75.1944 87.8777 73.1312 89.9132 72.0479 90.7264L76.3686 89.8314C76.3686 89.8314 79.8284 89.2497 79.8964 88.3538C79.999 87.0007 77.669 81.5124 77.0964 80.1769C76.0309 77.6921 73.9583 75.4865 71.48 74.4854L71.4812 74.4859Z" fill="white" stroke="black" stroke-width="0.7" stroke-miterlimit="10" stroke-linejoin="bevel"/>
</mask>
<g mask="url(#mask0_587_10618)">
<path d="M79.0002 79L73.5002 81.5L72.5002 91.5L81.5002 90.5L79.0002 79Z" fill="#EBE9E9"/>
<path d="M71.4812 74.4859L69.9479 73.8664C67.8111 73.0034 65.8256 73.218 64.4436 74.2565L61.9177 76.1518C63.301 75.1139 65.2852 74.8988 67.422 75.7617L68.9553 76.3812C72.7655 77.9204 75.6169 82.3066 75.3234 86.1773C75.1944 87.8777 73.1312 89.9132 72.0479 90.7264L76.3686 89.8314C76.3686 89.8314 79.8284 89.2497 79.8964 88.3538C79.999 87.0007 77.669 81.5124 77.0964 80.1769C76.0309 77.6921 73.9583 75.4865 71.48 74.4854L71.4812 74.4859Z" stroke="black" stroke-width="0.7" stroke-miterlimit="10" stroke-linejoin="bevel"/>
</g>
<path d="M68.9555 76.3815C72.7657 77.9207 75.6171 82.3069 75.3236 86.1776C75.0301 90.0483 71.7036 91.9385 67.8934 90.3993L66.3601 89.7798C62.5502 88.2415 59.6988 83.8552 59.992 79.9836C60.2855 76.1129 63.6129 74.2225 67.4222 75.762L68.9555 76.3815Z" fill="#66DE8C" stroke="black" stroke-width="0.7" stroke-miterlimit="10"/>
<path d="M76.6225 66.7594C76.8428 65.9364 77.6647 65.4363 78.5016 65.5959C79.466 65.7799 80.0612 66.7568 79.8128 67.7067C79.6383 68.3735 79.4556 69.1228 79.3352 69.7538C79.2076 70.4229 79.0897 71.2758 78.9969 72.0291C78.8773 72.9994 77.9669 73.6813 77.0066 73.4981C76.1645 73.3375 75.5831 72.5625 75.6842 71.7112C75.7815 70.8911 75.9143 69.8909 76.0596 69.129C76.1998 68.3939 76.4248 67.4981 76.6225 66.7594Z" fill="black"/>
<path d="M64.9594 63.6335C65.1608 62.8811 65.9121 62.424 66.6772 62.57C67.5588 62.7381 68.1029 63.6312 67.8758 64.4995C67.7163 65.109 67.5492 65.7941 67.4392 66.3709C67.3225 66.9826 67.2147 67.7622 67.1299 68.4508C67.0207 69.3378 66.1884 69.9613 65.3105 69.7938C64.5407 69.647 64.0092 68.9384 64.1016 68.1602C64.1906 67.4106 64.312 66.4962 64.4448 65.7997C64.573 65.1277 64.7786 64.3088 64.9594 63.6335Z" fill="black"/>
<path d="M79.8899 48.9729C79.7351 49.0292 79.6406 49.1859 79.6629 49.3491C79.6852 49.5124 79.8183 49.6379 79.9825 49.6507L84.3657 49.9914C84.4155 49.9952 84.4656 49.9884 84.5125 49.9713L105.027 42.5047C105.182 42.4483 105.276 42.2917 105.254 42.1284C105.232 41.9652 105.099 41.8396 104.934 41.8268L100.551 41.4862C100.501 41.4823 100.451 41.4892 100.404 41.5062L79.8899 48.9729Z" fill="black" stroke="black" stroke-width="0.7" stroke-linejoin="round"/>
<path d="M70.8718 84.1845C70.9771 85.2234 70.4044 85.9741 69.7827 86.0371C69.1611 86.1002 68.4493 85.4797 68.344 84.4408C68.2386 83.4018 68.8114 82.6511 69.433 82.5881C70.0547 82.525 70.7665 83.1455 70.8718 84.1845Z" fill="#EBE9E9" stroke="black" stroke-width="0.7"/>
<mask id="mask1_587_10618" style="mask-type:alpha" maskUnits="userSpaceOnUse" x="67" y="82" width="5" height="5">
<ellipse cx="69.6079" cy="84.3126" rx="1.6204" ry="2.08337" transform="rotate(-5.7895 69.6079 84.3126)" fill="black"/>
</mask>
<g mask="url(#mask1_587_10618)">
<ellipse cx="70.2287" cy="83.8927" rx="1.6204" ry="2.08337" transform="rotate(-5.7895 70.2287 83.8927)" fill="black"/>
</g>
<path d="M64.9063 81.7255C65.0048 82.6965 64.4692 83.3879 63.9004 83.4455C63.3315 83.5032 62.6681 82.9334 62.5697 81.9624C62.4712 80.9913 63.0067 80.3 63.5756 80.2423C64.1445 80.1846 64.8078 80.7544 64.9063 81.7255Z" fill="#EBE9E9" stroke="black" stroke-width="0.7"/>
<mask id="mask2_587_10618" style="mask-type:alpha" maskUnits="userSpaceOnUse" x="62" y="79" width="4" height="5">
<ellipse cx="63.738" cy="81.8439" rx="1.52431" ry="1.95983" transform="rotate(-5.7895 63.738 81.8439)" fill="black"/>
</mask>
<g mask="url(#mask2_587_10618)">
<ellipse cx="64.3228" cy="81.4484" rx="1.52431" ry="1.95983" transform="rotate(-5.7895 64.3228 81.4484)" fill="black"/>
</g>
</svg>
