<svg width="144" height="108" viewBox="0 0 144 108" fill="none" xmlns="http://www.w3.org/2000/svg">
<path d="M125.466 70.9169C125.276 69.8654 124.65 68.8681 123.742 68.3462L84.8428 45.8874C84.4215 45.6439 83.9924 45.5317 83.5788 45.5317H79.9568V50.3946L80.2622 50.8662L73.8376 70.9207L72.3687 75.513C71.8816 77.0399 72.6161 78.9417 74.0038 79.7419L110.51 100.817L110.549 102.556H114.171C115.126 102.556 115.976 101.946 116.316 100.883L125.385 72.5791C125.555 72.0495 125.574 71.4774 125.474 70.9207L125.466 70.9169Z" fill="black" stroke="black" stroke-width="0.7" stroke-miterlimit="10"/>
<path d="M125.466 70.9169C125.276 69.8654 124.65 68.8681 123.742 68.3462L84.8428 45.8874C84.4215 45.6439 83.9924 45.5317 83.5788 45.5317H79.9568V50.3946L80.2622 50.8662L73.8376 70.9207L72.3687 75.513C71.8816 77.0399 72.6161 78.9417 74.0038 79.7419L110.51 100.817L110.549 102.556H114.171C115.126 102.556 115.976 101.946 116.316 100.883L125.385 72.5791C125.555 72.0495 125.574 71.4774 125.474 70.9207L125.466 70.9169Z" stroke="black" stroke-width="0.7" stroke-miterlimit="10"/>
<path d="M112.686 100.883C112.199 102.41 110.661 103.001 109.277 102.201L70.3781 79.742C68.9903 78.9418 68.2559 77.0361 68.7429 75.5131L77.8115 47.2096C78.2985 45.6827 79.837 45.0913 81.2209 45.8914L120.12 68.3502C121.508 69.1504 122.242 71.0562 121.755 72.5792L112.686 100.883Z" fill="#EBE9E9" stroke="black" stroke-width="0.7" stroke-miterlimit="10"/>
<path d="M121.755 72.5753C122.242 71.0484 121.508 69.1465 120.12 68.3463L81.2209 45.8875C79.8331 45.0874 78.2985 45.6788 77.8114 47.2056L70.2623 70.505L114.206 95.8823L121.759 72.5753H121.755Z" fill="#66DE8C" stroke="black" stroke-width="0.7"/>
<path d="M111.203 86.704C110.716 88.2309 109.177 88.8223 107.793 88.0222L68.8945 65.5633C67.5068 64.7631 66.7723 62.8574 67.2594 61.3344L76.328 33.0308C76.815 31.504 78.3535 30.9126 79.7374 31.7127L118.636 54.1715C120.024 54.9717 120.759 56.8774 120.271 58.4004L111.203 86.704Z" fill="white" stroke="black" stroke-width="0.7" stroke-miterlimit="10"/>
<path d="M93.6612 46.6449L92.8495 49.1846L79.8148 41.6584L80.6266 39.1226L93.6612 46.6449Z" fill="black"/>
<path d="M101.891 51.3958L101.079 53.9355L94.7782 50.2979L95.5938 47.7622L101.891 51.3958Z" fill="black"/>
<path d="M101.136 78.9432C103.101 78.2443 103.973 75.6508 103.084 73.1506C102.195 70.6504 99.8805 69.1902 97.9154 69.8891C95.9502 70.5881 95.0781 73.1817 95.9674 75.6819C96.8567 78.1821 99.1707 79.6422 101.136 78.9432Z" fill="#66DE8C"/>
<path d="M105.953 81.7289C107.918 81.0299 108.79 78.4365 107.901 75.9363C107.012 73.436 104.698 71.9758 102.733 72.6748C100.767 73.3738 99.8953 75.9673 100.785 78.4675C101.674 80.9677 103.988 82.4279 105.953 81.7289Z" fill="black"/>
<path d="M84.5462 56.8576C84.2833 57.6848 83.4522 58.0057 82.6985 57.5689L77.279 54.4416C76.529 54.0087 76.1309 52.9766 76.3938 52.1532L77.7158 48.0287C77.9786 47.2015 78.8097 46.8806 79.5635 47.3174L84.983 50.4447C85.7329 50.8776 86.1311 51.9097 85.8682 52.7331L84.5462 56.8576Z" fill="white" stroke="black" stroke-width="0.7" stroke-miterlimit="10"/>
<path d="M77.8509 49.4321L85.1606 53.6534" stroke="black" stroke-width="0.7" stroke-miterlimit="10" stroke-linecap="round"/>
<path d="M77.1127 51.377L84.4263 55.5981" stroke="black" stroke-width="0.7" stroke-miterlimit="10" stroke-linecap="round"/>
<path d="M81.1639 48.2378L80.6884 49.726" stroke="black" stroke-width="0.7" stroke-miterlimit="10" stroke-linecap="round"/>
<path d="M83.7383 49.7261L83.2628 51.2105" stroke="black" stroke-width="0.7" stroke-miterlimit="10" stroke-linecap="round"/>
<path d="M79.2349 53.8081L78.7595 55.2964" stroke="black" stroke-width="0.7" stroke-miterlimit="10" stroke-linecap="round"/>
<path d="M81.8053 55.2964L81.3299 56.7807" stroke="black" stroke-width="0.7" stroke-miterlimit="10" stroke-linecap="round"/>
<path d="M121.044 80.8743C121.438 80.8202 121.859 80.4684 121.979 80.0896L123.525 75.2615C123.645 74.8827 123.425 74.6159 123.03 74.6701C122.636 74.7242 122.215 75.076 122.095 75.4548L120.549 80.2828C120.429 80.6617 120.649 80.9284 121.044 80.8743Z" fill="#EBE9E9" stroke="black" stroke-width="0.7" stroke-miterlimit="10" stroke-linecap="round"/>
</svg>
