<svg width="144" height="108" viewBox="0 0 144 108" fill="none" xmlns="http://www.w3.org/2000/svg">
<rect x="104.911" y="35.5511" width="3.7" height="12.7" transform="rotate(20.0892 104.911 35.5511)" fill="white" stroke="black" stroke-width="0.7"/>
<circle cx="107.5" cy="34" r="5.65" fill="#66DE8C" stroke="black" stroke-width="0.7"/>
<circle cx="94.9999" cy="70" r="28.65" fill="#EBE9E9" stroke="black" stroke-width="0.7"/>
<mask id="mask0_587_10771" style="mask-type:alpha" maskUnits="userSpaceOnUse" x="66" y="41" width="58" height="58">
<circle cx="94.9999" cy="70" r="28.65" fill="white" stroke="black" stroke-width="0.7"/>
</mask>
<g mask="url(#mask0_587_10771)">
<circle cx="90.9999" cy="64" r="29" fill="white"/>
<circle cx="94.9999" cy="70" r="28.65" stroke="black" stroke-width="0.7"/>
</g>
<rect x="70.0683" y="47.3676" width="44.3" height="25.3" rx="12.65" transform="rotate(14 70.0683 47.3676)" fill="white" stroke="black" stroke-width="0.7"/>
<rect x="72.2535" y="51.0044" width="38.3" height="19.3" rx="9.65" transform="rotate(14 72.2535 51.0044)" fill="black" stroke="black" stroke-width="0.7"/>
<rect x="95.0593" y="62.8745" width="4.3" height="7.3" rx="2.15" transform="rotate(14 95.0593 62.8745)" fill="white" stroke="black" stroke-width="0.7"/>
<rect x="79.5346" y="59.0034" width="4.3" height="7.3" rx="2.15" transform="rotate(14 79.5346 59.0034)" fill="white" stroke="black" stroke-width="0.7"/>
<path d="M129.183 73.9738C128.723 76.9194 127.549 79.4512 126.041 81.1654C124.529 82.8833 122.721 83.7439 120.97 83.4706C119.22 83.1973 117.759 81.8265 116.843 79.7296C115.929 77.6372 115.583 74.868 116.042 71.9223C116.502 68.9767 117.676 66.4449 119.185 64.7307C120.696 63.0128 122.505 62.1522 124.255 62.4255C126.006 62.6988 127.466 64.0696 128.382 66.1665C129.296 68.2589 129.643 71.0282 129.183 73.9738Z" fill="#66DE8C" stroke="black" stroke-width="0.7"/>
<mask id="mask1_587_10771" style="mask-type:alpha" maskUnits="userSpaceOnUse" x="115" y="62" width="15" height="22">
<ellipse cx="122.613" cy="72.9481" rx="7" ry="11" transform="rotate(8.87284 122.613 72.9481)" fill="white"/>
</mask>
<g mask="url(#mask1_587_10771)">
<path d="M129.204 73.7152C128.825 76.1394 127.961 78.2351 126.887 79.6644C125.802 81.1074 124.568 81.7978 123.442 81.6221C122.317 81.4463 121.351 80.4125 120.759 78.7077C120.171 77.019 119.987 74.7596 120.365 72.3354C120.744 69.9112 121.608 67.8155 122.682 66.3862C123.766 64.9432 125.001 64.2528 126.126 64.4285C127.252 64.6043 128.217 65.6381 128.81 67.3429C129.398 69.0316 129.582 71.291 129.204 73.7152Z" fill="white" stroke="black" stroke-width="0.7"/>
<path d="M129.183 73.9738C128.724 76.9194 127.549 79.4512 126.041 81.1654C124.53 82.8833 122.721 83.7439 120.97 83.4706C119.22 83.1973 117.76 81.8265 116.844 79.7296C115.929 77.6372 115.583 74.868 116.043 71.9223C116.502 68.9767 117.677 66.4449 119.185 64.7307C120.697 63.0128 122.505 62.1522 124.256 62.4255C126.006 62.6988 127.467 64.0696 128.383 66.1665C129.297 68.2589 129.643 71.0282 129.183 73.9738Z" stroke="black" stroke-width="0.7"/>
</g>
<path d="M125.194 72.5736C125.236 72.2483 125.433 71.9807 125.631 71.974C125.829 71.9672 125.96 72.2214 125.913 72.5399C125.871 72.8652 125.673 73.139 125.475 73.1457C125.277 73.1524 125.152 72.8927 125.194 72.5736Z" fill="black"/>
<path d="M126.523 73.0859C126.616 73.082 126.697 73.1329 126.755 73.2438C126.865 73.4649 126.818 73.8394 126.643 74.0717L125.371 75.837C125.286 75.9534 125.188 76.0128 125.095 76.0167C125.002 76.0207 124.92 75.9697 124.863 75.8589L123.681 73.4658L123.485 74.9381C123.442 75.2634 123.245 75.5372 123.047 75.5439C122.849 75.5506 122.724 75.2909 122.766 74.9718L123.377 70.3706C123.42 70.0453 123.617 69.7777 123.815 69.771C124.013 69.7642 124.138 70.0178 124.096 70.3369L123.899 71.8154L125.743 69.2641C125.828 69.1477 125.926 69.0821 126.019 69.0782C126.112 69.0743 126.194 69.1252 126.251 69.2361L127.069 70.8942C127.178 71.1153 127.131 71.4898 126.956 71.7221C126.871 71.8386 126.773 71.8979 126.68 71.9019C126.587 71.9058 126.506 71.8549 126.454 71.7446L125.823 70.4823L124.29 72.6025L125.274 74.5987L126.248 73.2595C126.332 73.143 126.431 73.0775 126.524 73.0736L126.523 73.0859Z" fill="black"/>
</svg>
