<svg width="1920" height="236" viewBox="0 0 1920 236" fill="none" xmlns="http://www.w3.org/2000/svg">
<g clip-path="url(#clip0_1284_5107)">
<rect width="1920" height="236" fill="#49D691"/>
<rect x="120" width="1680" height="236" fill="#49D691"/>
<path d="M150.5 -18.5L222.809 113.603C226.318 120.014 233.044 124 240.353 124H339.874C345.258 124 350.282 126.708 353.241 131.206L361 143" stroke="#8DEFD3" stroke-width="2" stroke-linecap="round"/>
<path d="M162.912 15.1021L135.481 31.6385C131.879 33.8101 129.676 37.7092 129.676 41.9155L129.676 107.662C129.676 109.629 128.712 111.471 127.096 112.592L-9 207" stroke="#6FF2CD"/>
<circle cx="239.269" cy="118" r="2" fill="#7CFFBF"/>
<circle cx="246.269" cy="118" r="2" fill="#59ECA4"/>
<circle cx="253.269" cy="118" r="2" fill="#59ECA4"/>
<rect x="171.939" y="7.16992" width="5" height="2" rx="1" transform="rotate(60 171.939 7.16992)" fill="#C7FFEF"/>
<rect x="162.413" y="12.6699" width="5" height="2" rx="1" transform="rotate(60 162.413 12.6699)" fill="#C7FFEF"/>
<path d="M1766.92 254.323L1694.61 122.22C1691.1 115.809 1684.37 111.823 1677.07 111.823H1577.54C1572.16 111.823 1567.14 109.115 1564.18 104.617L1556.42 92.8228" stroke="#8DEFD3" stroke-width="2" stroke-linecap="round"/>
<path d="M1754.51 220.721L1781.94 204.184C1785.54 202.013 1787.74 198.114 1787.74 193.907L1787.74 128.207C1787.74 126.215 1788.73 124.352 1790.38 123.236L1930.5 28.5" stroke="#6FF2CD"/>
<circle cx="1678.15" cy="117.823" r="2" transform="rotate(180 1678.15 117.823)" fill="#7CFFBF"/>
<circle cx="1671.15" cy="117.823" r="2" transform="rotate(180 1671.15 117.823)" fill="#59ECA4"/>
<circle cx="1664.15" cy="117.823" r="2" transform="rotate(180 1664.15 117.823)" fill="#59ECA4"/>
<rect x="1745.48" y="228.652" width="5" height="2" rx="1" transform="rotate(-120 1745.48 228.652)" fill="#C7FFEF"/>
<rect x="1755.01" y="223.152" width="5" height="2" rx="1" transform="rotate(-120 1755.01 223.152)" fill="#C7FFEF"/>
<path d="M1439.31 79.3227L1285.48 -168.474H1715.4V93.4999H1464.8C1454.42 93.4999 1444.78 88.1382 1439.31 79.3227Z" fill="url(#paint0_linear_1284_5107)"/>
<path d="M502.354 156.177L656.186 403.974H226.259V142H476.866C487.242 142 496.882 147.362 502.354 156.177Z" fill="url(#paint1_linear_1284_5107)"/>
<path d="M235.824 228.042H484.026C486.689 228.042 489.277 227.156 491.381 225.524L506.753 213.601C508.857 211.969 511.444 211.083 514.107 211.083L551.129 211.083C553.121 211.083 554.983 212.072 556.099 213.722L558.941 217.924" stroke="#6FF2CD"/>
<path d="M564.285 226.13L570.802 236.323" stroke="#6FF2CD"/>
<rect x="561.498" y="217.275" width="5" height="2" rx="1" transform="rotate(144.778 561.498 217.275)" fill="#C7FFEF"/>
<rect x="566.617" y="224.94" width="5" height="2" rx="1" transform="rotate(144.778 566.617 224.94)" fill="#C7FFEF"/>
<path d="M1681.59 7.78143H1433.39C1430.73 7.78143 1428.14 8.66725 1426.04 10.2994L1410.67 22.2223C1408.56 23.8544 1405.97 24.7402 1403.31 24.7402L1366.29 24.7402C1364.3 24.7402 1362.44 23.7516 1361.32 22.1014L1358.48 17.8991" stroke="#6FF2CD"/>
<path d="M1353.13 9.69336L1346.62 -0.499473" stroke="#6FF2CD"/>
<rect x="1355.92" y="18.5479" width="5" height="2" rx="1" transform="rotate(-35.2218 1355.92 18.5479)" fill="#C7FFEF"/>
<rect x="1350.8" y="10.8828" width="5" height="2" rx="1" transform="rotate(-35.2218 1350.8 10.8828)" fill="#C7FFEF"/>
<rect x="190.74" y="-5.51855" width="13.3258" height="51.9268" rx="6.6629" transform="rotate(-30.6305 190.74 -5.51855)" fill="url(#paint2_linear_1284_5107)"/>
<circle cx="219.634" cy="29.809" r="3.36778" transform="rotate(-2.12024 219.634 29.809)" stroke="#8DEFD3"/>
<rect x="220.778" y="27.9873" width="4.10611" height="1.3" rx="0.65" transform="rotate(102.88 220.778 27.9873)" fill="#C7FFEF"/>
<path d="M215.798 11.1652L220.63 7.85082C221.629 7.16562 222.812 6.7989 224.024 6.7989H276.373C278.029 6.7989 279.612 6.1141 280.746 4.90675L286.589 -1.31396" stroke="#6FF2CD" stroke-linecap="round" stroke-linejoin="round"/>
<rect x="1729.34" y="241.579" width="13.3258" height="51.9268" rx="6.6629" transform="rotate(149.369 1729.34 241.579)" fill="url(#paint3_linear_1284_5107)"/>
<circle cx="1700.44" cy="206.252" r="3.36778" transform="rotate(177.88 1700.44 206.252)" stroke="#8DEFD3"/>
<rect x="1699.3" y="208.073" width="4.10611" height="1.3" rx="0.65" transform="rotate(-77.1202 1699.3 208.073)" fill="#C7FFEF"/>
<path d="M1704.28 224.895L1699.45 228.21C1698.45 228.895 1697.26 229.262 1696.05 229.262H1643.7C1642.05 229.262 1640.46 229.946 1639.33 231.154L1633.49 237.375" stroke="#6FF2CD" stroke-linecap="round" stroke-linejoin="round"/>
</g>
<defs>
<linearGradient id="paint0_linear_1284_5107" x1="1363.81" y1="-31.1323" x2="1702.56" y2="32.3836" gradientUnits="userSpaceOnUse">
<stop stop-color="#4EEA9D"/>
<stop offset="1" stop-color="#57E6A0" stop-opacity="0"/>
</linearGradient>
<linearGradient id="paint1_linear_1284_5107" x1="577.851" y1="266.632" x2="239.1" y2="203.116" gradientUnits="userSpaceOnUse">
<stop stop-color="#4EEA9D"/>
<stop offset="1" stop-color="#57E6A0" stop-opacity="0"/>
</linearGradient>
<linearGradient id="paint2_linear_1284_5107" x1="197.403" y1="-5.51855" x2="197.403" y2="46.4082" gradientUnits="userSpaceOnUse">
<stop stop-color="#4FE79C" stop-opacity="0"/>
<stop offset="1" stop-color="#4FE79C"/>
</linearGradient>
<linearGradient id="paint3_linear_1284_5107" x1="1736" y1="241.579" x2="1736" y2="293.506" gradientUnits="userSpaceOnUse">
<stop stop-color="#4FE79C" stop-opacity="0"/>
<stop offset="1" stop-color="#4FE79C"/>
</linearGradient>
<clipPath id="clip0_1284_5107">
<rect width="1920" height="236" fill="white"/>
</clipPath>
</defs>
</svg>
