<svg width="120" height="120" viewBox="0 0 120 120" fill="none" xmlns="http://www.w3.org/2000/svg">
<path d="M91.0042 90.4341C92.7269 91.4287 92.7358 93.045 91.0219 94.0396L63.4218 110.077C61.7079 111.072 58.9195 111.072 57.1967 110.077L29.4368 94.0396C27.714 93.045 27.7051 91.4376 29.419 90.443L57.0102 74.4051C58.7241 73.4105 61.5126 73.4105 63.2353 74.4051L91.013 90.443L91.0042 90.4341Z" fill="#121212" stroke="#121212" stroke-width="0.7" stroke-miterlimit="10"/>
<mask id="mask0_587_11068" style="mask-type:alpha" maskUnits="userSpaceOnUse" x="20" y="38" width="81" height="67">
<path d="M98.7881 40.1616L63.5848 60.6186C61.9805 61.5496 59.3703 61.5496 57.7577 60.6186L22.3133 40.1616C21.4987 39.6961 21.0997 39.0809 21.0997 38.4658L20.9999 80.9755C20.9999 81.5906 21.3989 82.2057 22.2136 82.6712L57.6497 103.128C59.2623 104.059 61.8724 104.059 63.4767 103.128L98.6801 82.6712C99.4781 82.2057 99.8771 81.6072 99.8771 81.0004L99.9768 38.4908C99.9768 39.0976 99.5778 39.7044 98.7798 40.1616H98.7881Z" fill="white" stroke="black" stroke-width="0.7" stroke-miterlimit="10"/>
</mask>
<g mask="url(#mask0_587_11068)">
<path d="M98.7629 79.2783C100.376 80.2093 100.384 81.7139 98.7796 82.6449L63.5762 103.102C61.9719 104.033 59.3618 104.033 57.7492 103.102L22.3131 82.6532C20.7004 81.7222 20.7004 80.2093 22.2964 79.2783L57.5081 58.8213C59.1124 57.8903 61.7142 57.8903 63.3268 58.8213L98.7629 79.2783Z" fill="#EBE9E9"/>
<mask id="mask1_587_11068" style="mask-type:alpha" maskUnits="userSpaceOnUse" x="44" y="53" width="33" height="35">
<path d="M71.1281 55.6086L71.8965 56.3235L71.8846 56.3369L72.1582 56.5685C74.8931 58.8828 76.345 62.7751 75.7425 67.6054C75.1795 72.1192 72.9294 76.5675 69.7344 80.1041C66.539 83.6413 62.4203 86.2426 58.1458 87.0928C54.0194 87.9136 50.5233 86.9511 48.1386 84.7644L48.1084 84.7367L48.1039 84.7325L48.1039 84.7325L48.1012 84.73C48.0531 84.6854 48.0053 84.6402 47.958 84.5945L47.9554 84.592L46.3472 83.0701L46.6614 83.0861L46.3293 82.5252C45.003 80.2849 44.416 77.3609 44.838 73.9775C45.4011 69.4636 47.6512 65.0153 50.8461 61.4787C54.0415 57.9416 58.1603 55.3403 62.4347 54.49C65.5335 53.8737 68.2758 54.2638 70.456 55.4184L71.1844 55.8041L71.1281 55.6086Z" fill="#D9D9D9" stroke="black" stroke-width="0.7"/>
</mask>
<g mask="url(#mask1_587_11068)">
<path d="M71.1281 55.6086L71.8965 56.3235L71.8846 56.3369L72.1582 56.5685C74.8931 58.8828 76.345 62.7751 75.7425 67.6054C75.1795 72.1192 72.9294 76.5675 69.7344 80.1041C66.539 83.6413 62.4203 86.2426 58.1458 87.0928C54.0194 87.9136 50.5233 86.9511 48.1386 84.7644L48.1084 84.7367L48.1039 84.7325L48.1039 84.7325L48.1012 84.73C48.0531 84.6854 48.0053 84.6402 47.958 84.5945L47.9554 84.592L46.3472 83.0701L46.6614 83.0861L46.3293 82.5252C45.003 80.2849 44.416 77.3609 44.838 73.9775C45.4011 69.4636 47.6512 65.0153 50.8461 61.4787C54.0415 57.9416 58.1603 55.3403 62.4347 54.49C65.5335 53.8737 68.2758 54.2638 70.456 55.4184L71.1844 55.8041L71.1281 55.6086Z" fill="#EBE9E9" stroke="#121212" stroke-width="0.7"/>
<path d="M61.9878 79.8027L67.1041 84.7006L51.3212 90.2641L43.4865 80.9534L61.9878 79.8027Z" fill="#121212"/>
<path d="M64.8009 78.9308L68.4813 82.6759L70.3142 81.0377L66.484 76.9492L64.8009 78.9308Z" fill="#121212"/>
<path d="M71.1281 55.6086L71.8965 56.3235L71.8846 56.3369L72.1582 56.5685C74.8931 58.8828 76.345 62.7751 75.7425 67.6054C75.1795 72.1192 72.9294 76.5675 69.7344 80.1041C66.539 83.6413 62.4203 86.2426 58.1458 87.0928C54.0194 87.9136 50.5233 86.9511 48.1386 84.7644L48.1084 84.7367L48.1039 84.7325L48.1039 84.7325L48.1012 84.73C48.0531 84.6854 48.0053 84.6402 47.958 84.5945L47.9554 84.592L46.3472 83.0701L46.6614 83.0861L46.3293 82.5252C45.003 80.2849 44.416 77.3609 44.838 73.9775C45.4011 69.4636 47.6512 65.0153 50.8461 61.4787C54.0415 57.9416 58.1603 55.3403 62.4347 54.49C65.5335 53.8737 68.2758 54.2638 70.456 55.4184L71.1844 55.8041L71.1281 55.6086Z" stroke="#121212" stroke-width="0.7"/>
</g>
<path d="M72.9249 65.0711C71.8005 74.0853 63.9591 82.7475 55.4358 84.4429C46.9124 86.1383 40.888 80.2341 42.0123 71.2199C43.1367 62.2058 50.9781 53.5435 59.5015 51.8482C68.0248 50.1528 74.0493 56.057 72.9249 65.0711Z" fill="white" stroke="#121212" stroke-width="0.7"/>
<mask id="mask2_587_11068" style="mask-type:alpha" maskUnits="userSpaceOnUse" x="45" y="55" width="25" height="26">
<path d="M68.7531 65.9012C67.9315 72.4881 62.2033 78.8112 55.984 80.0482C49.7647 81.2853 45.3625 76.9773 46.1841 70.3904C47.0058 63.8035 52.734 57.4805 58.9533 56.2434C65.1726 55.0063 69.5747 59.3143 68.7531 65.9012Z" fill="#66DD8C" stroke="black" stroke-width="0.7"/>
</mask>
<g mask="url(#mask2_587_11068)">
<path d="M68.7531 65.9012C67.9315 72.4881 62.2033 78.8112 55.984 80.0482C49.7647 81.2853 45.3625 76.9773 46.1841 70.3904C47.0058 63.8035 52.734 57.4805 58.9533 56.2434C65.1726 55.0063 69.5747 59.3143 68.7531 65.9012Z" fill="#00C27C" stroke="#121212" stroke-width="0.7"/>
<path d="M69.5323 66.5958C68.7453 72.9047 63.2591 78.9598 57.3037 80.1444C51.3483 81.329 47.1319 77.2038 47.9189 70.8949C48.7058 64.586 54.192 58.5309 60.1474 57.3463C66.1029 56.1617 70.3192 60.2869 69.5323 66.5958Z" stroke="white" stroke-width="0.7"/>
<path d="M68.7531 65.9012C67.9315 72.4881 62.2033 78.8112 55.984 80.0482C49.7647 81.2853 45.3625 76.9773 46.1841 70.3904C47.0058 63.8035 52.734 57.4805 58.9533 56.2434C65.1726 55.0063 69.5747 59.3143 68.7531 65.9012Z" stroke="#121212" stroke-width="0.7"/>
</g>
<rect x="60.6642" y="36.0072" width="46.1027" height="73.2483" fill="white" fill-opacity="0.4" stroke="#121212" stroke-width="0.7"/>
<rect x="14.7975" y="36.0072" width="46.1027" height="73.2483" fill="white" fill-opacity="0.4" stroke="#121212" stroke-width="0.7"/>
</g>
<path d="M98.7884 40.1606L63.585 60.6176C61.9807 61.5486 59.3706 61.5486 57.758 60.6176L22.3136 40.1606C21.4989 39.6951 21.0999 39.08 21.0999 38.4648L21.0002 80.9745C21.0002 81.5896 21.3992 82.2047 22.2138 82.6702L57.6499 103.127C59.2625 104.058 61.8726 104.058 63.477 103.127L98.6803 82.6702C99.4783 82.2047 99.8773 81.6062 99.8773 80.9994L99.977 38.4898C99.977 39.0966 99.5781 39.7034 98.7801 40.1606H98.7884Z" stroke="#121212" stroke-width="0.7" stroke-miterlimit="10"/>
<path d="M98.7632 37.1553C100.376 38.0863 100.384 39.5908 98.7799 40.5218L63.5765 60.9788C61.9722 61.9098 59.3621 61.9098 57.7495 60.9788L22.3134 40.5301C20.7007 39.5991 20.7007 38.0863 22.2967 37.1553L57.5084 16.6982C59.1127 15.7673 61.7145 15.7673 63.3271 16.6982L98.7632 37.1553Z" fill="white" stroke="#121212" stroke-width="0.7" stroke-miterlimit="10"/>
<path d="M86.8484 36.9418C88.3122 37.7865 88.3197 39.1591 86.8635 40.0038L63.4125 53.6244C61.9562 54.4691 59.587 54.4691 58.1232 53.6244L34.5364 40.0038C33.0726 39.1591 33.065 37.7941 34.5213 36.9494L57.9647 23.3288C59.421 22.4841 61.7902 22.4841 63.254 23.3288L86.8559 36.9494L86.8484 36.9418Z" fill="#00C27C" stroke="#121212" stroke-width="0.7" stroke-miterlimit="10"/>
<path d="M56.4897 44.6939C56.4897 44.6939 51.1171 42.7043 49.2634 39.1823C47.4097 35.6603 50.8918 33.0199 52.8743 32.2998C54.8567 31.5797 58.794 30.9104 62.2484 31.5797C65.4268 32.1936 67.9199 33.1999 69.4286 34.4463C70.9373 35.6926 71.1581 37.2528 69.3872 37.9268C67.6163 38.6007 65.551 38.1853 63.8951 37.2621C62.2393 36.3389 59.3277 35.2633 57.3958 36.5927C55.3305 38.0145 57.8695 40.0455 60.2384 41.0103C62.644 41.9889 66.1215 42.9213 70.735 42.4874" stroke="#121212" stroke-width="0.7" stroke-linecap="round" stroke-linejoin="round"/>
<path d="M61.1706 38.3809C61.1706 38.3809 67.1625 42.1441 72.6479 39.1138" stroke="#121212" stroke-width="0.7" stroke-linecap="round" stroke-linejoin="round"/>
<path d="M65.5414 44.9802C65.5414 44.9802 62.1578 44.7932 58.3942 42.7455C54.3311 40.5348 53.4595 38.5062 53.5221 37.0915C53.6204 34.9384 56.4722 33.7395 58.7518 33.5524C61.5231 33.3223 63.9055 33.869 66.9092 35.7344" stroke="#121212" stroke-width="0.7" stroke-linecap="round" stroke-linejoin="round"/>
</svg>
