<svg width="120" height="120" viewBox="0 0 120 120" fill="none" xmlns="http://www.w3.org/2000/svg">
<rect width="120" height="120" fill="white"/>
<path d="M80 103.75C80 104.202 79.8438 104.655 79.5313 105.096C78.7389 106.222 76.9445 107.295 74.1404 108.169C66.3301 110.61 53.6699 110.61 45.8596 108.169C43.0555 107.295 41.2573 106.222 40.4686 105.096C40.1562 104.653 40 104.202 40 103.75C40 102.152 41.9507 100.554 45.8596 99.3311C53.6699 96.8896 66.3301 96.8896 74.1404 99.3311C78.0455 100.552 80 102.15 80 103.75Z" fill="#121212" stroke="#121212" stroke-width="1.25" stroke-linecap="round" stroke-linejoin="round"/>
<path d="M26.0021 64.8925L26.5084 31.0573L40.2465 23.9619L39.7479 57.7971L26.0021 64.8925Z" fill="white" stroke="black" stroke-width="0.7" stroke-miterlimit="10"/>
<path d="M67.8684 15.6471C69.1801 16.046 70.4764 17.0125 71.4736 18.4546C75.5083 24.3073 82.7571 32.9674 92.0693 36.2888C93.7261 36.8795 95.0225 38.7971 94.9994 40.6994L94.5008 74.5346C94.2477 91.855 70.4687 98.7048 66.6641 97.5389C62.8594 96.373 39.487 75.1176 39.7478 57.7973L40.2464 23.9621C40.2771 22.0598 41.6194 20.9475 43.2763 21.3694C52.6038 23.7473 60.0443 19.5822 64.2172 16.2378C65.245 15.417 66.5644 15.2482 67.8684 15.6471Z" fill="white" stroke="black" stroke-width="0.7" stroke-miterlimit="10"/>
<path d="M41.5504 21.5311C40.7756 21.93 40.2617 22.8044 40.2464 23.9704L26.5082 31.058C26.5236 29.8921 27.0375 29.0253 27.8122 28.6188C31.9314 26.4863 37.4312 23.6482 41.5504 21.5234V21.5311Z" fill="white" stroke="black" stroke-width="0.7" stroke-miterlimit="10"/>
<path d="M66.5567 100.944C60.6043 104.02 54.6596 105.171 52.9107 104.634C49.106 103.468 25.7489 82.2125 26.002 64.8922L39.7402 57.7969C39.487 75.1172 62.8365 96.3725 66.6488 97.5385C68.3977 98.0754 74.3424 96.9248 80.2948 93.8489C76.1757 95.9813 70.6759 98.8195 66.5567 100.944Z" fill="white" stroke="black" stroke-width="0.7" stroke-miterlimit="10"/>
<path d="M45.6465 26.4935C47.5489 25.5117 49.175 24.3841 50.479 23.3332C50.6708 23.1798 50.8703 23.0494 51.085 22.942L64.8232 15.8467C64.616 15.9541 64.4089 16.0845 64.2172 16.2379C62.9132 17.2811 61.287 18.4087 59.3847 19.3982C55.2655 21.5306 49.7657 24.3688 45.6465 26.4935Z" fill="white" stroke="black" stroke-width="0.7" stroke-miterlimit="10"/>
<path d="M92.0693 36.2887C82.7495 32.9673 75.5084 24.3071 71.4736 18.4544C70.4764 17.0123 69.1801 16.0458 67.8684 15.647C66.8022 15.3248 65.736 15.3708 64.8232 15.8464L53.9999 21.4383C50.8319 22.2207 47.2267 22.3818 43.2763 21.3769C42.632 21.2159 42.0414 21.2772 41.5504 21.5304L27.8123 28.6257C28.3032 28.3726 28.8939 28.3035 29.5382 28.4723C35.9509 30.1061 41.4661 28.6487 45.6466 26.4933L53.2405 22.5736C53.532 22.6042 53.8311 22.6579 54.1303 22.75C55.442 23.1489 56.7383 24.1154 57.7355 25.5574C61.7703 31.4101 69.019 40.0703 78.3312 43.3917C79.988 43.9823 81.2844 45.9 81.2614 47.8023L80.7628 81.6375C80.6247 91.0187 73.5907 97.324 66.5644 100.952L80.3025 93.8568C87.3288 90.2286 94.3551 83.9234 94.5009 74.5422L94.9995 40.707C95.0302 38.8046 93.7261 36.8793 92.0693 36.2963V36.2887Z" fill="white" stroke="black" stroke-width="0.7" stroke-miterlimit="10"/>
<path d="M92.0692 36.2887C82.7494 32.9673 75.5083 24.3071 71.4736 18.4544C70.4764 17.0123 69.18 16.0458 67.8684 15.647C66.8021 15.3248 65.7359 15.3708 64.8231 15.8464L53.9998 21.4383C50.8319 22.2207 47.2267 22.3818 43.2763 21.3769C42.6319 21.2159 42.0413 21.2772 41.5504 21.5304L27.8123 28.6257C28.3032 28.3726 28.8938 28.3035 29.5382 28.4723C35.9508 30.1061 41.466 28.6487 45.6465 26.4933L53.2404 22.5736C53.5319 22.6042 53.8311 22.6579 54.1302 22.75C55.4419 23.1489 56.7382 24.1154 57.7354 25.5574C61.7702 31.4101 69.0189 40.0703 78.3311 43.3917C79.988 43.9823 81.2843 45.9 81.2613 47.8023L80.7627 81.6375C80.6246 91.0187 73.5906 97.324 66.5643 100.952L80.3025 93.8568C87.3288 90.2286 94.3551 83.9234 94.5008 74.5422L94.9994 40.707C95.0301 38.8046 93.7261 36.8793 92.0692 36.2963V36.2887Z" fill="white" stroke="black" stroke-width="0.7" stroke-miterlimit="10"/>
<mask id="mask0_587_11006" style="mask-type:alpha" maskUnits="userSpaceOnUse" x="27" y="15" width="69" height="87">
<path d="M92.0692 36.2887C82.7494 32.9673 75.5083 24.3071 71.4736 18.4544C70.4764 17.0123 69.18 16.0458 67.8684 15.647C66.8021 15.3248 65.7359 15.3708 64.8231 15.8464L53.9998 21.4383C50.8319 22.2207 47.2267 22.3818 43.2763 21.3769C42.6319 21.2159 42.0413 21.2772 41.5504 21.5304L27.8123 28.6257C28.3032 28.3726 28.8938 28.3035 29.5382 28.4723C35.9508 30.1061 41.466 28.6487 45.6465 26.4933L53.2404 22.5736C53.5319 22.6042 53.8311 22.6579 54.1302 22.75C55.4419 23.1489 56.7382 24.1154 57.7354 25.5574C61.7702 31.4101 69.0189 40.0703 78.3311 43.3917C79.988 43.9823 81.2843 45.9 81.2613 47.8023L80.7627 81.6375C80.6246 91.0187 73.5906 97.324 66.5643 100.952L80.3025 93.8568C87.3288 90.2286 94.3551 83.9234 94.5008 74.5422L94.9994 40.707C95.0301 38.8046 93.7261 36.8793 92.0692 36.2963V36.2887Z" fill="white" stroke="black" stroke-width="0.7" stroke-miterlimit="10"/>
</mask>
<g mask="url(#mask0_587_11006)">
<path d="M99.5 37.5L77 49L65 107L97.5 105L99.5 37.5Z" fill="#EBE9E9"/>
<path d="M99.5 34.5L77 46L65 104L97.5 102L99.5 34.5Z" stroke="#EBE9E9" stroke-width="0.7"/>
<path d="M92.0692 36.2887C82.7494 32.9673 75.5083 24.3071 71.4736 18.4544C70.4764 17.0123 69.18 16.0458 67.8684 15.647C66.8021 15.3248 65.7359 15.3708 64.8231 15.8464L53.9998 21.4383C50.8319 22.2207 47.2267 22.3818 43.2763 21.3769C42.6319 21.2159 42.0413 21.2772 41.5504 21.5304L27.8123 28.6257C28.3032 28.3726 28.8938 28.3035 29.5382 28.4723C35.9508 30.1061 41.466 28.6487 45.6465 26.4933L53.2404 22.5736C53.5319 22.6042 53.8311 22.6579 54.1302 22.75C55.4419 23.1489 56.7382 24.1154 57.7354 25.5574C61.7702 31.4101 69.0189 40.0703 78.3311 43.3917C79.988 43.9823 81.2843 45.9 81.2613 47.8023L80.7627 81.6375C80.6246 91.0187 73.5906 97.324 66.5643 100.952L80.3025 93.8568C87.3288 90.2286 94.3551 83.9234 94.5008 74.5422L94.9994 40.707C95.0301 38.8046 93.7261 36.8793 92.0692 36.2963V36.2887Z" stroke="black" stroke-width="0.7" stroke-miterlimit="10"/>
</g>
<path d="M54.1303 22.7428C55.442 23.1417 56.7383 24.1082 57.7355 25.5503C61.7702 31.403 69.019 40.0631 78.3312 43.3845C79.988 43.9752 81.2844 45.8928 81.2613 47.7951L80.7628 81.6303C80.5096 98.9507 56.7306 105.801 52.926 104.635C49.1214 103.469 25.7489 82.2133 26.002 64.893L26.5083 31.0578C26.539 29.1555 27.8813 28.0432 29.5382 28.4651C38.8657 30.843 46.3062 26.6779 50.4791 23.3335C51.5069 22.5127 52.8263 22.344 54.1303 22.7428Z" fill="white" stroke="black" stroke-width="0.7" stroke-miterlimit="10"/>
<path d="M52.8191 39.1369C53.6515 39.39 54.4709 40.0002 55.1016 40.9155C57.6573 44.6157 62.2483 50.088 68.1463 52.1913C69.1998 52.5678 70.0192 53.7817 69.9997 54.9826L69.681 76.3721C69.5184 87.3298 54.4579 91.6596 52.0453 90.9196C49.6327 90.1795 34.8388 76.7486 35.0013 65.7845L35.32 44.395C35.3395 43.1941 36.1914 42.4865 37.2448 42.7526C43.1559 44.2522 47.864 41.6166 50.5041 39.5069C51.1544 38.9876 51.9933 38.8772 52.8191 39.1304V39.1369Z" fill="#00C27C" stroke="black" stroke-width="0.7" stroke-miterlimit="10"/>
<path d="M51.0816 52.1884C53.8451 52.9688 56.0433 55.9856 55.9994 58.9208C55.9554 61.8561 53.6755 63.5975 50.9121 62.8112C48.1486 62.025 45.9567 59.0198 46.0006 56.0846C46.0446 53.1493 48.3182 51.4021 51.0816 52.1884Z" fill="white" stroke="black" stroke-width="0.7" stroke-miterlimit="10"/>
<path d="M51.132 64.3629C55.6345 65.7212 59.3216 70.5476 59.9848 75.6264C60.1065 76.558 59.4798 77.1891 58.6828 76.9486L43.2709 72.2966C42.4739 72.0562 41.8715 71.0524 42.0236 70.205C42.8328 65.5709 46.6295 63.0045 51.132 64.3629Z" fill="white" stroke="black" stroke-width="0.7" stroke-miterlimit="10"/>
<path d="M91.2102 68.1709L84.5288 72.0269" stroke="#121212" stroke-width="0.7" stroke-linecap="round" stroke-linejoin="round"/>
<path d="M91.2102 72.8711L84.5288 76.7271" stroke="#121212" stroke-width="0.7" stroke-linecap="round" stroke-linejoin="round"/>
<path d="M91.2102 59.1709L84.5288 63.0269" stroke="#121212" stroke-width="0.7" stroke-linecap="round" stroke-linejoin="round"/>
<path d="M91.2102 63.8711L84.5288 67.7271" stroke="#121212" stroke-width="0.7" stroke-linecap="round" stroke-linejoin="round"/>
<path d="M91.2102 54.8711L84.5288 58.7271" stroke="#121212" stroke-width="0.7" stroke-linecap="round" stroke-linejoin="round"/>
</svg>
