<svg width="120" height="120" viewBox="0 0 120 120" fill="none" xmlns="http://www.w3.org/2000/svg">
<path d="M92.6619 88.7141C94.5161 89.7846 94.5257 91.5242 92.681 92.5947L62.9749 109.856C61.1302 110.927 58.129 110.927 56.2748 109.856L26.3967 92.5947C24.5424 91.5242 24.5329 89.7942 26.3776 88.7237L56.0741 71.462C57.9188 70.3916 60.92 70.3916 62.7742 71.462L92.6715 88.7237L92.6619 88.7141Z" fill="#121212" stroke="#121212" stroke-miterlimit="10"/>
<mask id="mask0_587_11039" style="mask-type:alpha" maskUnits="userSpaceOnUse" x="16" y="31" width="89" height="74">
<path d="M102.583 33.7305L63.6372 56.3622C61.8623 57.3922 58.9747 57.3922 57.1907 56.3622L17.9783 33.7305C17.0771 33.2155 16.6357 32.535 16.6357 31.8545L16.5253 78.8831C16.5253 79.5636 16.9667 80.2442 17.868 80.7591L57.0711 103.391C58.8552 104.421 61.7428 104.421 63.5176 103.391L102.463 80.7591C103.346 80.2442 103.788 79.582 103.788 78.9107L103.898 31.8821C103.898 32.5534 103.456 33.2247 102.574 33.7305H102.583Z" fill="white" stroke="black" stroke-width="0.7" stroke-miterlimit="10"/>
</mask>
<g mask="url(#mask0_587_11039)">
<rect x="60.3499" y="43.35" width="51.3" height="71.3" fill="white" stroke="#121212" stroke-width="0.7"/>
<rect x="9.34994" y="43.35" width="51.3" height="71.3" fill="white" stroke="#121212" stroke-width="0.7"/>
</g>
<path d="M102.583 44.7286L63.6374 67.3603C61.8626 68.3902 58.975 68.3902 57.1909 67.3603L17.9786 44.7286C17.0773 44.2136 16.6359 43.5331 16.6359 42.8525L16.5256 78.8812C16.5256 79.5617 16.967 80.2422 17.8682 80.7572L57.0714 103.389C58.8554 104.419 61.743 104.419 63.5179 103.389L102.464 80.7572C103.346 80.2422 103.788 79.5801 103.788 78.9088L103.898 42.8801C103.898 43.5514 103.457 44.2228 102.574 44.7286H102.583Z" stroke="#121212" stroke-width="0.7" stroke-miterlimit="10"/>
<path d="M102.555 41.4042C104.339 42.4341 104.349 44.0986 102.574 45.1286L63.6281 67.7603C61.8533 68.7903 58.9657 68.7903 57.1816 67.7603L17.9785 45.1378C16.1944 44.1078 16.1944 42.4341 17.9601 41.4042L56.9149 18.7725C58.6898 17.7425 61.5682 17.7425 63.3522 18.7725L102.555 41.4042Z" fill="white" stroke="#121212" stroke-width="0.7" stroke-miterlimit="10"/>
<path d="M51.2229 79.5868V83.1484C51.2229 83.8172 50.8153 84.1259 50.3127 83.837L22.9951 68.063C22.4925 67.7741 22.0849 66.9906 22.0849 66.3218V62.7601C22.0849 62.0874 22.4965 61.7787 22.9951 62.0716L24.1862 62.7601L50.3127 77.8456C50.8192 78.1345 51.2229 78.9141 51.2229 79.5868Z" fill="#EBE9E9" stroke="#000D1D" stroke-width="0.7" stroke-linecap="round" stroke-linejoin="round"/>
<path d="M51.2245 79.5864V81.9292L25.098 66.8438C24.5954 66.5549 24.1878 65.7753 24.1878 65.1065V62.7598L50.3143 77.8452C50.8208 78.1341 51.2245 78.9137 51.2245 79.5864Z" fill="#000D1D" stroke="#000D1D" stroke-width="0.7" stroke-linecap="round" stroke-linejoin="round"/>
<path d="M68.999 79.5858V83.1475C68.999 83.8162 69.4065 84.1249 69.9091 83.836L97.2268 68.062C97.7293 67.7731 98.137 66.9896 98.137 66.3208V62.7592C98.137 62.0864 97.7254 61.7777 97.2268 62.0706L96.0356 62.7592L69.9091 77.8446C69.4026 78.1335 68.999 78.9131 68.999 79.5858Z" fill="#EBE9E9" stroke="#000D1D" stroke-width="0.7" stroke-linecap="round" stroke-linejoin="round"/>
<path d="M68.9993 79.5864V81.9292L95.1257 66.8438C95.6283 66.5549 96.0359 65.7753 96.0359 65.1065V62.7598L69.9094 77.8452C69.4029 78.1341 68.9993 78.9137 68.9993 79.5864Z" fill="#000D1D" stroke="#000D1D" stroke-width="0.7" stroke-linecap="round" stroke-linejoin="round"/>
<path fill-rule="evenodd" clip-rule="evenodd" d="M62.1824 40.6812C60.7629 39.9667 60.6911 38.6719 62.0248 37.7901C63.3567 36.9104 65.5947 36.7761 67.0122 37.4908C68.4339 38.2072 68.5017 39.5022 67.1698 40.3819C65.8361 41.2637 63.6021 41.3977 62.1824 40.6812Z" fill="#00C27C" stroke="#12192D" stroke-width="0.7" stroke-miterlimit="10" stroke-linejoin="round"/>
<path fill-rule="evenodd" clip-rule="evenodd" d="M74.2033 35.733C74.8214 35.3258 75.6898 35.0429 76.6632 34.9865C78.6098 34.8697 80.2366 35.6892 80.2962 36.8156L80.7561 45.241C80.7857 45.8003 80.4139 46.3338 79.7959 46.743C79.1758 47.1522 78.3057 47.4372 77.3423 47.495L56.3657 48.752L62.797 51.9927C64.2104 52.7036 64.2825 54.0044 62.9564 54.8797C61.6245 55.7594 59.3905 55.8935 57.9709 55.179L37.8322 45.038C36.4126 44.3234 36.3428 43.0285 37.6747 42.1489C39.0065 41.2692 41.2386 41.1352 42.6582 41.8517L49.0895 45.0905L48.4295 32.9349C48.4001 32.3777 48.7698 31.8422 49.3918 31.4329C50.0098 31.0238 50.8762 30.741 51.8434 30.681L66.3834 29.8083C68.33 29.6915 69.9568 30.5109 70.0185 31.6392C70.0484 32.2024 69.6826 32.7376 69.0645 33.1448C68.4463 33.5519 67.578 33.8348 66.6047 33.8932L55.5872 34.5545L56.1386 44.6694L73.5966 43.6236L73.2513 37.2404C73.2194 36.6753 73.5852 36.1401 74.2033 35.733Z" fill="#00C27C" stroke="#12192D" stroke-width="0.7" stroke-miterlimit="10" stroke-linejoin="round"/>
</svg>
