<svg width="36" height="36" viewBox="0 0 36 36" fill="none" xmlns="http://www.w3.org/2000/svg">
<path fill-rule="evenodd" clip-rule="evenodd" d="M31.5 18.208V18C31.5 10.5442 25.4558 4.5 18 4.5C10.5442 4.5 4.5 10.5442 4.5 18V18.208C5.38295 18.5938 6 19.4748 6 20.5V26.5C6 27.8807 4.88071 29 3.5 29C2.11929 29 1 27.8807 1 26.5V20.5C1 19.937 1.18604 19.4176 1.5 18.9997V18C1.5 8.8873 8.8873 1.5 18 1.5C27.1127 1.5 34.5 8.8873 34.5 18V18.9997C34.814 19.4176 35 19.937 35 20.5V26.5C35 27.508 34.4034 28.3766 33.5441 28.7722C32.249 31.509 29.7483 33.5638 26.7275 34.251C26.2533 35.2832 25.2103 36 24 36C22.3431 36 21 34.6568 21 33C21 31.3431 22.3431 30 24 30C24.9959 30 25.8785 30.4852 26.4241 31.2322C28.1686 30.7346 29.635 29.5772 30.5361 28.047C30.2003 27.6214 30 27.0841 30 26.5V20.5C30 19.4748 30.617 18.5938 31.5 18.208Z" fill="#01BC8D"/>
<path fill-rule="evenodd" clip-rule="evenodd" d="M9 18C7.89543 18 7 18.8954 7 20V27C7 28.1046 7.89543 29 9 29C10.1046 29 11 28.1046 11 27V20C11 18.8954 10.1046 18 9 18ZM27 18C25.8954 18 25 18.8954 25 20V27C25 28.1046 25.8954 29 27 29C28.1046 29 29 28.1046 29 27V20C29 18.8954 28.1046 18 27 18Z" fill="#1D1D1D"/>
</svg>
